<?xml version="1.0" encoding="UTF-8" standalone="no"?>
<!-- Created with Inkscape (http://www.inkscape.org/) -->

<svg
   xmlns:dc="http://purl.org/dc/elements/1.1/"
   xmlns:cc="http://creativecommons.org/ns#"
   xmlns:rdf="http://www.w3.org/1999/02/22-rdf-syntax-ns#"
   xmlns:svg="http://www.w3.org/2000/svg"
   xmlns="http://www.w3.org/2000/svg"
   xmlns:sodipodi="http://sodipodi.sourceforge.net/DTD/sodipodi-0.dtd"
   xmlns:inkscape="http://www.inkscape.org/namespaces/inkscape"
   width="210mm"
   height="297mm"
   viewBox="0 0 210 297"
   version="1.1"
   id="svg8"
   sodipodi:docname="mouse_play.svg"
   inkscape:version="0.92.4 (5da689c313, 2019-01-14)">
  <defs
     id="defs2" />
  <sodipodi:namedview
     id="base"
     pagecolor="#ffffff"
     bordercolor="#666666"
     borderopacity="1.0"
     inkscape:pageopacity="0.0"
     inkscape:pageshadow="2"
     inkscape:zoom="0.98994949"
     inkscape:cx="553.69526"
     inkscape:cy="554.12891"
     inkscape:document-units="mm"
     inkscape:current-layer="layer1"
     showgrid="false"
     inkscape:snap-bbox="true"
     inkscape:bbox-paths="true"
     inkscape:bbox-nodes="false"
     inkscape:snap-bbox-edge-midpoints="false"
     inkscape:snap-bbox-midpoints="true"
     inkscape:window-width="1920"
     inkscape:window-height="1057"
     inkscape:window-x="-8"
     inkscape:window-y="-8"
     inkscape:window-maximized="1" />
  <metadata
     id="metadata5">
    <rdf:RDF>
      <cc:Work
         rdf:about="">
        <dc:format>image/svg+xml</dc:format>
        <dc:type
           rdf:resource="http://purl.org/dc/dcmitype/StillImage" />
      </cc:Work>
    </rdf:RDF>
  </metadata>
  <g
     inkscape:label="レイヤー 1"
     inkscape:groupmode="layer"
     id="layer1">
    <path
       inkscape:connector-curvature="0"
       style="opacity:1;fill:#c8c8c8;fill-opacity:1;fill-rule:nonzero;stroke:none;stroke-width:2.64583325;stroke-linecap:butt;stroke-linejoin:miter;stroke-miterlimit:4;stroke-dasharray:none;stroke-dashoffset:0;stroke-opacity:1;paint-order:normal"
       d="m 110.91674,113.43545 v 9.9348 c 1.71218,0.90724 2.87476,2.70373 2.87476,4.78368 v 15.09779 c 0,2.07995 -1.16258,3.87643 -2.87476,4.78368 v 12.92428 h 34.42322 c -1.74916,-26.30384 -10.91381,-46.4466 -34.42322,-47.52423 z m -5.07824,0.0651 c -22.503439,1.64735 -31.582071,21.56855 -33.345252,47.45912 H 105.8385 V 148.0354 c -1.71218,-0.90725 -2.87424,-2.70373 -2.87424,-4.78368 v -15.09779 c 0,-2.07995 1.16206,-3.87644 2.87424,-4.78368 z m -33.594847,52.53736 c -0.0532,1.67369 -0.08113,3.3667 -0.08113,5.07824 0,57.54142 16.453464,57.73033 36.749697,57.73033 20.29622,0 36.7497,0.34562 36.7497,-57.73033 0,-1.71154 -0.0267,-3.40455 -0.0786,-5.07824 z"
       id="path815-0" />
    <rect
       style="opacity:1;fill:#c8c8c8;fill-opacity:1;fill-rule:nonzero;stroke:none;stroke-width:2.64599967;stroke-linecap:butt;stroke-linejoin:miter;stroke-miterlimit:4;stroke-dasharray:none;stroke-dashoffset:0;stroke-opacity:1;paint-order:normal"
       id="rect837-9"
       width="6.2918091"
       height="21.301554"
       x="105.23188"
       y="124.97852"
       ry="3.1459045"
       rx="3.1459045" />
    <rect
       style="opacity:1;fill:#808080;fill-opacity:1;stroke:none;stroke-width:6.61458397;stroke-linecap:butt;stroke-linejoin:miter;stroke-miterlimit:4;stroke-dasharray:none;stroke-dashoffset:0;stroke-opacity:1;paint-order:normal"
       id="rect6403-82"
       width="3.4214013"
       height="8.2113647"
       x="-134.02707"
       y="-132.66304"
       transform="matrix(0,-1,-1,0,0,0)" />
    <rect
       style="opacity:1;fill:#808080;fill-opacity:1;stroke:none;stroke-width:6.61458397;stroke-linecap:butt;stroke-linejoin:miter;stroke-miterlimit:4;stroke-dasharray:none;stroke-dashoffset:0;stroke-opacity:1;paint-order:normal"
       id="rect6403-8-5"
       width="3.4214013"
       height="8.2113647"
       x="123.65068"
       y="-139.61804"
       transform="scale(1,-1)" />
    <rect
       style="opacity:1;fill:#808080;fill-opacity:1;stroke:none;stroke-width:6.61458397;stroke-linecap:butt;stroke-linejoin:miter;stroke-miterlimit:4;stroke-dasharray:none;stroke-dashoffset:0;stroke-opacity:1;paint-order:normal"
       id="rect6403-3-6"
       width="3.4214013"
       height="8.2113647"
       x="130.60568"
       y="118.05972"
       transform="matrix(0,1,1,0,0,0)" />
    <rect
       style="opacity:1;fill:#808080;fill-opacity:1;stroke:none;stroke-width:6.61458397;stroke-linecap:butt;stroke-linejoin:miter;stroke-miterlimit:4;stroke-dasharray:none;stroke-dashoffset:0;stroke-opacity:1;paint-order:normal"
       id="rect6403-8-1-7"
       width="3.4214013"
       height="8.2113647"
       x="-127.07208"
       y="125.01472"
       transform="scale(-1,1)" />
    <path
       sodipodi:nodetypes="ccccccc"
       inkscape:connector-curvature="0"
       id="rect10373-89"
       d="m 136.6319,132.32052 -6.3268,-3.78268 c -0.23356,-0.14733 -0.44525,0.0304 -0.35866,0.28654 l 1.16951,3.49614 -1.16857,3.49333 c -0.0894,0.26072 0.1145,0.41738 0.35897,0.28862 z"
       style="opacity:1;fill:#808080;fill-opacity:1;stroke:none;stroke-width:6.94398975;stroke-linecap:butt;stroke-linejoin:miter;stroke-miterlimit:4;stroke-dasharray:none;stroke-dashoffset:0;stroke-opacity:1;paint-order:stroke fill markers" />
    <path
       sodipodi:nodetypes="ccccccc"
       inkscape:connector-curvature="0"
       id="rect10373-9-5"
       d="m 125.35728,143.58691 3.78268,-6.32679 c 0.14733,-0.23358 -0.0304,-0.44526 -0.28654,-0.35867 l -3.49614,1.16951 -3.49334,-1.16857 c -0.26071,-0.0894 -0.41737,0.1145 -0.28861,0.35897 z"
       style="opacity:1;fill:#808080;fill-opacity:1;stroke:none;stroke-width:6.94398975;stroke-linecap:butt;stroke-linejoin:miter;stroke-miterlimit:4;stroke-dasharray:none;stroke-dashoffset:0;stroke-opacity:1;paint-order:stroke fill markers" />
    <path
       sodipodi:nodetypes="ccccccc"
       inkscape:connector-curvature="0"
       id="rect10373-8-4"
       d="m 114.09089,132.31229 6.32679,3.78268 c 0.23357,0.14733 0.44526,-0.0304 0.35867,-0.28653 l -1.16951,-3.49615 1.16857,-3.49334 c 0.0894,-0.26071 -0.1145,-0.41737 -0.35897,-0.28861 z"
       style="opacity:1;fill:#808080;fill-opacity:1;stroke:none;stroke-width:6.94398975;stroke-linecap:butt;stroke-linejoin:miter;stroke-miterlimit:4;stroke-dasharray:none;stroke-dashoffset:0;stroke-opacity:1;paint-order:stroke fill markers" />
    <path
       sodipodi:nodetypes="ccccccc"
       inkscape:connector-curvature="0"
       id="rect10373-9-8-9"
       d="m 125.36551,121.0459 -3.78268,6.3268 c -0.14733,0.23356 0.0305,0.44525 0.28654,0.35866 l 3.49614,-1.16951 3.49334,1.16857 c 0.26071,0.0894 0.41737,-0.1145 0.28861,-0.35897 z"
       style="opacity:1;fill:#808080;fill-opacity:1;stroke:none;stroke-width:6.94398975;stroke-linecap:butt;stroke-linejoin:miter;stroke-miterlimit:4;stroke-dasharray:none;stroke-dashoffset:0;stroke-opacity:1;paint-order:stroke fill markers" />
    <path
       style="opacity:1;fill:#808080;fill-opacity:1;fill-rule:nonzero;stroke:none;stroke-width:9.34599972;stroke-linecap:butt;stroke-linejoin:miter;stroke-miterlimit:4;stroke-dasharray:none;stroke-dashoffset:0;stroke-opacity:1;paint-order:stroke fill markers"
       d="m 97.991816,126.39247 4.719264,4.71927 -8.040226,8.04021 -4.675566,-0.0437 -0.04369,-4.67556 z"
       id="rect1526"
       inkscape:connector-curvature="0"
       sodipodi:nodetypes="cccccc" />
    <rect
       style="opacity:1;fill:#808080;fill-opacity:1;fill-rule:nonzero;stroke:none;stroke-width:9.34599972;stroke-linecap:butt;stroke-linejoin:miter;stroke-miterlimit:4;stroke-dasharray:none;stroke-dashoffset:0;stroke-opacity:1;paint-order:stroke fill markers"
       id="rect1529"
       width="9.0223141"
       height="1.1741363"
       x="79.588737"
       y="137.93411" />
    <rect
       style="opacity:1;fill:#808080;fill-opacity:1;fill-rule:nonzero;stroke:none;stroke-width:9.34599972;stroke-linecap:butt;stroke-linejoin:miter;stroke-miterlimit:4;stroke-dasharray:none;stroke-dashoffset:0;stroke-opacity:1;paint-order:stroke fill markers"
       id="rect1546"
       width="5.0081844"
       height="13.985119"
       x="110.16119"
       y="142.99585" />
    <rect
       style="opacity:1;fill:#808080;fill-opacity:1;fill-rule:nonzero;stroke:none;stroke-width:9.34599972;stroke-linecap:butt;stroke-linejoin:miter;stroke-miterlimit:4;stroke-dasharray:none;stroke-dashoffset:0;stroke-opacity:1;paint-order:stroke fill markers"
       id="rect1546-8"
       width="5.0081844"
       height="13.985119"
       x="101.59057"
       y="142.99585" />
  </g>
</svg>
