<?xml version="1.0" encoding="UTF-8" standalone="no"?>
<svg
   width="103mm"
   height="33mm"
   viewBox="0 0 103 33"
   version="1.1"
   id="svg8"
   inkscape:version="1.1 (1:1.1+202105261517+ce6663b3b7)"
   sodipodi:docname="button-listen-auto-threshold.svg"
   xmlns:inkscape="http://www.inkscape.org/namespaces/inkscape"
   xmlns:sodipodi="http://sodipodi.sourceforge.net/DTD/sodipodi-0.dtd"
   xmlns="http://www.w3.org/2000/svg"
   xmlns:svg="http://www.w3.org/2000/svg"
   xmlns:rdf="http://www.w3.org/1999/02/22-rdf-syntax-ns#"
   xmlns:cc="http://creativecommons.org/ns#"
   xmlns:dc="http://purl.org/dc/elements/1.1/">
  <defs
     id="defs2" />
  <sodipodi:namedview
     id="base"
     pagecolor="#ffffff"
     bordercolor="#666666"
     borderopacity="1.0"
     inkscape:pageopacity="0.0"
     inkscape:pageshadow="2"
     inkscape:zoom="1.6666783"
     inkscape:cx="170.39881"
     inkscape:cy="88.199384"
     inkscape:document-units="mm"
     inkscape:current-layer="layer1"
     inkscape:document-rotation="0"
     showgrid="false"
     inkscape:snap-bbox="true"
     inkscape:bbox-paths="true"
     inkscape:bbox-nodes="true"
     inkscape:snap-bbox-edge-midpoints="true"
     inkscape:snap-bbox-midpoints="true"
     inkscape:object-paths="true"
     inkscape:snap-intersection-paths="true"
     inkscape:snap-smooth-nodes="true"
     inkscape:snap-midpoints="true"
     inkscape:snap-object-midpoints="true"
     inkscape:snap-center="true"
     inkscape:snap-page="true"
     inkscape:snap-text-baseline="true"
     inkscape:pagecheckerboard="true"
     showguides="false"
     inkscape:guide-bbox="true"
     fit-margin-top="0"
     fit-margin-left="0"
     fit-margin-right="0"
     fit-margin-bottom="0">
    <sodipodi:guide
       position="76.499999,-19.999999"
       orientation="1,0"
       id="guide68628" />
    <sodipodi:guide
       position="-2.8401152e-08,16.5"
       orientation="0,-1"
       id="guide88809" />
    <sodipodi:guide
       position="23,16.5"
       orientation="-0.60876143,-0.79335334"
       id="guide95265" />
    <sodipodi:guide
       position="12.578257,23.571068"
       orientation="0.70710678,-0.70710678"
       id="guide18451" />
    <sodipodi:guide
       position="12.578257,9.4289325"
       orientation="-0.70710678,-0.70710678"
       id="guide18511" />
  </sodipodi:namedview>
  <metadata
     id="metadata5">
    <rdf:RDF>
      <cc:Work
         rdf:about="">
        <dc:format>image/svg+xml</dc:format>
        <dc:type
           rdf:resource="http://purl.org/dc/dcmitype/StillImage" />
      </cc:Work>
    </rdf:RDF>
  </metadata>
  <g
     inkscape:label="レイヤー 1"
     inkscape:groupmode="layer"
     id="layer1">
    <rect
       style="fill:#6c9389;fill-opacity:1;stroke:#59726c;stroke-width:3;stroke-linecap:round;stroke-linejoin:round;stroke-miterlimit:4;stroke-dasharray:none;stroke-opacity:1;paint-order:normal"
       id="rect4558-3"
       width="100"
       height="30"
       x="1.5"
       y="1.5"
       ry="15"
       rx="15"
       inkscape:export-xdpi="128"
       inkscape:export-ydpi="128" />
    <g
       aria-label="LISTEN"
       id="text5490"
       style="font-size:22.9306px;line-height:1.25;font-family:'Mplus 1p';-inkscape-font-specification:'Mplus 1p';letter-spacing:2.64583px;fill:#f0f3f3;stroke-width:0.070004"
       transform="translate(0,0.437319)" />
    <g
       aria-label="AUTO"
       id="text4591"
       style="font-size:21.1666px;line-height:1.25;font-family:'Mplus 1p';-inkscape-font-specification:'Mplus 1p';fill:#f0f3f3;stroke-width:0.264582">
      <path
         d="M 32.926366,20.204155 H 25.010057 L 22.660565,23.90831 H 20.374572 L 30.068875,9.0916904 h 2.095493 L 35.910856,23.90831 h -2.095493 z m -0.423332,-1.693328 -1.756828,-7.302477 -4.656652,7.302477 z"
         style="font-style:italic;font-weight:500;font-family:Montserrat;-inkscape-font-specification:'Montserrat Medium Italic'"
         id="path47098" />
      <path
         d="m 44.356269,24.077643 q -2.624658,0 -4.10632,-1.312329 -1.460495,-1.31233 -1.460495,-3.640655 0,-0.698498 0.169332,-1.608662 l 1.672162,-8.4243066 h 2.11666 L 41.05428,17.49483 q -0.148167,0.719665 -0.148167,1.396996 0,1.629828 0.931331,2.476492 0.93133,0.825497 2.709325,0.825497 1.98966,0 3.174989,-1.142996 1.206497,-1.142996 1.693328,-3.577155 l 1.672162,-8.3819736 h 2.074326 L 51.468246,17.62183 q -0.656164,3.217323 -2.455325,4.847151 -1.777994,1.608662 -4.656652,1.608662 z"
         style="font-style:italic;font-weight:500;font-family:Montserrat;-inkscape-font-specification:'Montserrat Medium Italic'"
         id="path47100" />
      <path
         d="M 59.786677,10.933185 H 54.72786 L 55.087692,9.0916904 H 67.343153 L 66.962154,10.933185 H 61.903337 L 59.299845,23.90831 h -2.095493 z"
         style="font-style:italic;font-weight:500;font-family:Montserrat;-inkscape-font-specification:'Montserrat Medium Italic'"
         id="path47102" />
      <path
         d="m 73.608458,24.077643 q -2.18016,0 -3.746488,-0.783164 -1.566328,-0.783165 -2.391826,-2.18016 -0.825497,-1.418162 -0.825497,-3.280823 0,-2.476492 1.12183,-4.508486 1.121829,-2.031993 3.153823,-3.217323 2.05316,-1.1853293 4.720152,-1.1853293 2.180159,0 3.746488,0.7831641 1.587495,0.7831642 2.412992,2.2013262 0.825497,1.396996 0.825497,3.259656 0,2.476493 -1.121829,4.508486 -1.12183,2.031994 -3.17499,3.217323 -2.05316,1.18533 -4.720152,1.18533 z m 0.190499,-1.883828 q 1.989661,0 3.513656,-0.93133 1.523995,-0.93133 2.349492,-2.497659 0.825498,-1.587495 0.825498,-3.471322 0,-2.05316 -1.312329,-3.259656 -1.291163,-1.227663 -3.704155,-1.227663 -1.989661,0 -3.513656,0.93133 -1.523995,0.931331 -2.370659,2.518826 -0.825497,1.587495 -0.825497,3.450155 0,2.05316 1.312329,3.280823 1.312329,1.206496 3.725321,1.206496 z"
         style="font-style:italic;font-weight:500;font-family:Montserrat;-inkscape-font-specification:'Montserrat Medium Italic'"
         id="path47104" />
    </g>
    <path
       id="path17448"
       style="fill:none;stroke:#f0f3f3;stroke-width:2;stroke-linecap:butt;stroke-linejoin:round;paint-order:stroke fill markers"
       d="m 12.24264,9.4289308 c 3.905242,3.9052432 3.905243,10.2368932 0,14.1421362"
       sodipodi:nodetypes="cc" />
    <path
       id="path18829"
       style="fill:none;stroke:#f0f3f3;stroke-width:2;stroke-linecap:butt;stroke-linejoin:round;paint-order:stroke fill markers"
       d="m 8.7071068,12.964464 c 1.9526212,1.952622 1.9526212,5.118447 0,7.071068"
       sodipodi:nodetypes="cc" />
    <path
       id="path17448-7"
       style="fill:none;stroke:#f0f3f3;stroke-width:2;stroke-linecap:butt;stroke-linejoin:round;paint-order:stroke fill markers"
       d="m 90.757647,9.4291067 c -3.905242,3.9052423 -3.905243,10.2368923 0,14.1421353"
       sodipodi:nodetypes="cc" />
    <path
       id="path18829-5"
       style="fill:none;stroke:#f0f3f3;stroke-width:2;stroke-linecap:butt;stroke-linejoin:round;paint-order:stroke fill markers"
       d="m 94.293177,12.964639 c -1.95262,1.952622 -1.95262,5.118447 0,7.071068"
       sodipodi:nodetypes="cc" />
    <path
       id="rect4558-3-6"
       style="mix-blend-mode:overlay;fill:#a8bbb6;fill-opacity:0.39761764;stroke:none;stroke-width:3;stroke-linecap:round;stroke-linejoin:round;stroke-miterlimit:4;stroke-dasharray:none;stroke-opacity:1;paint-order:normal"
       d="M 23.000001,-1.0456802e-6 0.95173501,22.048268 c 0.82723829,2.33104 2.15985719,4.418631 3.87056309,6.12934 L 32.999907,-1.0456802e-6 Z m 19.999812,0 L 10.952157,32.047655 c 1.732653,0.614817 3.599341,0.952397 5.547981,0.952397 h 3.500046 L 52.999718,-1.0456802e-6 Z M 98.177841,4.821927 69.999716,33.000052 H 80.000138 L 102.04789,10.952304 C 101.22066,8.6210552 99.888673,6.5327625 98.177841,4.821927 Z" />
  </g>
</svg>
