<?xml version="1.0" encoding="UTF-8" standalone="no"?>
<svg
   width="128mm"
   height="128mm"
   viewBox="0 0 128 128"
   version="1.1"
   id="svg8"
   inkscape:version="1.1 (1:1.1+202105261517+ce6663b3b7)"
   sodipodi:docname="button-selector.svg"
   xmlns:inkscape="http://www.inkscape.org/namespaces/inkscape"
   xmlns:sodipodi="http://sodipodi.sourceforge.net/DTD/sodipodi-0.dtd"
   xmlns="http://www.w3.org/2000/svg"
   xmlns:svg="http://www.w3.org/2000/svg"
   xmlns:rdf="http://www.w3.org/1999/02/22-rdf-syntax-ns#"
   xmlns:cc="http://creativecommons.org/ns#"
   xmlns:dc="http://purl.org/dc/elements/1.1/">
  <defs
     id="defs2" />
  <sodipodi:namedview
     id="base"
     pagecolor="#ffffff"
     bordercolor="#666666"
     borderopacity="1.0"
     inkscape:pageopacity="0.0"
     inkscape:pageshadow="2"
     inkscape:zoom="0.9939163"
     inkscape:cx="282.71998"
     inkscape:cy="263.60369"
     inkscape:document-units="mm"
     inkscape:current-layer="layer1"
     inkscape:document-rotation="0"
     showgrid="false"
     inkscape:snap-bbox="true"
     inkscape:bbox-paths="true"
     inkscape:bbox-nodes="true"
     inkscape:snap-bbox-edge-midpoints="true"
     inkscape:snap-bbox-midpoints="true"
     inkscape:object-paths="true"
     inkscape:snap-intersection-paths="true"
     inkscape:snap-smooth-nodes="true"
     inkscape:snap-midpoints="true"
     inkscape:snap-object-midpoints="true"
     inkscape:snap-center="true"
     inkscape:snap-page="true"
     inkscape:snap-text-baseline="true"
     inkscape:pagecheckerboard="true"
     fit-margin-top="0"
     fit-margin-left="0"
     fit-margin-right="0"
     fit-margin-bottom="0"
     lock-margins="true" />
  <metadata
     id="metadata5">
    <rdf:RDF>
      <cc:Work
         rdf:about="">
        <dc:format>image/svg+xml</dc:format>
        <dc:type
           rdf:resource="http://purl.org/dc/dcmitype/StillImage" />
      </cc:Work>
    </rdf:RDF>
  </metadata>
  <g
     inkscape:label="レイヤー 1"
     inkscape:groupmode="layer"
     id="layer1"
     transform="translate(1.5,1.5)">
    <rect
       style="fill:none;fill-opacity:1;stroke:#c7d2d2;stroke-width:3;stroke-linecap:round;stroke-linejoin:round;stroke-miterlimit:4;stroke-dasharray:3, 9;stroke-dashoffset:0;stroke-opacity:1;paint-order:markers stroke fill"
       id="rect4610"
       width="125"
       height="125"
       x="2.6645353e-14"
       y="-1.7763568e-15"
       rx="25"
       ry="25"
       inkscape:export-xdpi="128"
       inkscape:export-ydpi="128" />
    <path
       style="fill:none;fill-opacity:1;stroke:#bccece;stroke-width:1.5;stroke-linecap:round;stroke-linejoin:round;stroke-miterlimit:4;stroke-dasharray:none;stroke-dashoffset:0;stroke-opacity:1;paint-order:markers stroke fill"
       d="m 27.673548,61.934584 17.388324,-1.71663"
       id="path4842"
       inkscape:export-xdpi="128"
       inkscape:export-ydpi="128" />
    <path
       style="fill:#dde6e6;fill-opacity:1;stroke:none;stroke-width:3;stroke-linecap:round;stroke-linejoin:round;stroke-miterlimit:4;stroke-dasharray:3, 9.00002;stroke-dashoffset:0;stroke-opacity:1;paint-order:markers stroke fill"
       d="m 24.11888,56.258014 51.25724,29.59338 29.59338,-51.25723 z"
       id="path4624"
       sodipodi:nodetypes="cccc"
       inkscape:export-xdpi="128"
       inkscape:export-ydpi="128" />
    <path
       style="fill:#cfdddd;fill-opacity:1;stroke:none;stroke-width:3;stroke-linecap:round;stroke-linejoin:round;stroke-miterlimit:4;stroke-dasharray:3, 9.00002;stroke-dashoffset:0;stroke-opacity:1;paint-order:markers stroke fill"
       d="m 43.328937,67.350044 4.093441,23.05579 4.774809,-17.93571 52.772443,-37.87479 z"
       id="path4624-5"
       sodipodi:nodetypes="ccccc"
       inkscape:export-xdpi="128"
       inkscape:export-ydpi="128" />
    <path
       style="fill:#bccece;fill-opacity:1;stroke:none;stroke-width:3;stroke-linecap:round;stroke-linejoin:round;stroke-miterlimit:4;stroke-dasharray:3, 9.00002;stroke-dashoffset:0;stroke-opacity:1;paint-order:markers stroke fill"
       d="m 47.422377,90.405834 13.374889,-12.97154 -8.600204,-4.96534 z"
       id="path4624-5-3"
       sodipodi:nodetypes="cccc"
       inkscape:export-xdpi="128"
       inkscape:export-ydpi="128" />
    <path
       style="fill:none;fill-opacity:1;stroke:#bccece;stroke-width:1.5;stroke-linecap:round;stroke-linejoin:round;stroke-miterlimit:4;stroke-dasharray:none;stroke-dashoffset:0;stroke-opacity:1;paint-order:markers stroke fill"
       d="m 27.829422,61.920244 c -3.329802,0.33315 -6.45324,-1.40662 -6.976406,-3.88596 -0.523166,-2.47934 1.752061,-4.75934 5.081857,-5.09252"
       id="path4871"
       inkscape:export-xdpi="128"
       inkscape:export-ydpi="128" />
    <path
       style="fill:none;fill-opacity:1;stroke:#bccece;stroke-width:1.5;stroke-linecap:round;stroke-linejoin:round;stroke-miterlimit:4;stroke-dasharray:none;stroke-dashoffset:0;stroke-opacity:1;paint-order:markers stroke fill"
       d="m 27.829422,61.920244 c -3.329802,0.33315 -6.45324,-1.40662 -6.976406,-3.88596 -0.523166,-2.47934 1.752061,-4.75934 5.081857,-5.09252"
       id="path4869"
       inkscape:export-xdpi="128"
       inkscape:export-ydpi="128" />
    <path
       style="fill:none;fill-opacity:1;stroke:#bccece;stroke-width:1.5;stroke-linecap:round;stroke-linejoin:round;stroke-miterlimit:4;stroke-dasharray:none;stroke-dashoffset:0;stroke-opacity:1;paint-order:markers stroke fill"
       d="m 27.261058,59.226704 c -1.331925,0.13324 -2.581296,-0.56266 -2.790561,-1.55439 -0.209265,-0.99173 0.700821,-1.90374 2.03274,-2.03701"
       id="path4867"
       inkscape:export-xdpi="128"
       inkscape:export-ydpi="128" />
    <path
       style="fill:none;fill-opacity:1;stroke:#bccece;stroke-width:1.5;stroke-linecap:round;stroke-linejoin:round;stroke-miterlimit:4;stroke-dasharray:none;stroke-dashoffset:0;stroke-opacity:1;paint-order:markers stroke fill"
       d="m 44.488965,57.502834 c 2.330852,-0.23325 3.923524,-1.82923 3.557307,-3.56477 -0.366216,-1.73554 -2.552635,-2.95339 -4.883491,-2.72016"
       id="path4865"
       inkscape:export-xdpi="128"
       inkscape:export-ydpi="128" />
    <path
       style="fill:none;fill-opacity:1;stroke:#bccece;stroke-width:1.5;stroke-linecap:round;stroke-linejoin:round;stroke-miterlimit:4;stroke-dasharray:none;stroke-dashoffset:0;stroke-opacity:1;paint-order:markers stroke fill"
       d="m 25.934863,52.941764 17.228006,-1.72387"
       id="path4863"
       inkscape:export-xdpi="128"
       inkscape:export-ydpi="128" />
    <path
       style="fill:none;fill-opacity:1;stroke:#bccece;stroke-width:1.5;stroke-linecap:round;stroke-linejoin:round;stroke-miterlimit:4;stroke-dasharray:none;stroke-dashoffset:0;stroke-opacity:1;paint-order:markers stroke fill"
       d="m 44.488965,57.502834 -17.227907,1.72387"
       id="path4861"
       inkscape:export-xdpi="128"
       inkscape:export-ydpi="128" />
    <path
       style="fill:none;fill-opacity:1;stroke:#bccece;stroke-width:1.5;stroke-linecap:round;stroke-linejoin:round;stroke-miterlimit:4;stroke-dasharray:none;stroke-dashoffset:0;stroke-opacity:1;paint-order:markers stroke fill"
       d="m 26.503281,55.635514 17.228743,-1.71986"
       id="path4859"
       inkscape:export-xdpi="128"
       inkscape:export-ydpi="128" />
    <g
       aria-label="タップしてファイルを選択"
       id="text1040-2-6-2"
       style="font-size:8.81944px;line-height:1.25;font-family:'Rounded Mplus 1c';-inkscape-font-specification:'Rounded Mplus 1c';text-align:center;text-anchor:middle;fill:#9bafaa;stroke-width:0.264582">
      <path
         d="m 10.765263,102.12991 -0.05292,-0.0529 q -0.14993,-0.13229 -0.15875,-0.33514 -0.0088,-0.21167 0.123472,-0.3616 1.075972,-1.24354 1.41993,-2.883954 0.0441,-0.211666 0.202847,-0.343958 0.16757,-0.132292 0.379236,-0.123472 h 0.114653 q 0.202847,0.01764 0.335139,0.176389 0.132291,0.14993 0.09701,0.352777 l -0.02646,0.185209 q -0.01764,0.07937 0.05292,0.07937 h 3.45722 q 0.202847,0 0.343958,0.14993 0.149931,0.14993 0.149931,0.352778 -0.02646,2.892776 -1.322916,4.330346 -1.287638,1.43757 -4.09222,1.76389 -0.211667,0.0264 -0.379236,-0.10584 -0.15875,-0.13229 -0.194028,-0.34395 l -0.0088,-0.0706 q -0.03528,-0.20285 0.07938,-0.3616 0.123472,-0.15875 0.3175,-0.18521 2.328332,-0.30868 3.307289,-1.37583 0.05292,-0.0529 -0.0088,-0.0882 -0.740833,-0.37924 -1.922638,-0.91722 -0.185208,-0.0882 -0.255764,-0.28223 -0.06174,-0.19402 0.03528,-0.37041 l 0.07937,-0.14111 q 0.09701,-0.18521 0.291042,-0.25577 0.202847,-0.0705 0.396874,0.0176 0.890764,0.41451 1.975555,0.9525 0.05292,0.0265 0.08819,-0.0441 0.291042,-0.76729 0.361597,-1.896176 0,-0.07056 -0.07056,-0.07056 H 13.0054 12.952484 q -0.07938,-0.01764 -0.105833,0.06174 -0.458611,1.181806 -1.358194,2.160766 -0.141111,0.14993 -0.352778,0.15875 -0.211666,0.009 -0.370416,-0.13229 z"
         style="font-weight:bold;font-family:'Rounded Mplus 1c Bold';-inkscape-font-specification:'Rounded Mplus 1c Bold,  Bold'"
         id="path836" />
      <path
         d="m 25.255585,99.898587 q 0.211667,0.0088 0.352778,0.167573 0.141111,0.15875 0.132291,0.37041 -0.105833,2.33715 -1.049513,3.4484 -0.93486,1.10243 -3.007429,1.41993 -0.211666,0.0353 -0.388055,-0.097 -0.16757,-0.12347 -0.211667,-0.33514 -0.03528,-0.19403 0.07937,-0.3616 0.114653,-0.16757 0.3175,-0.20284 1.702152,-0.29104 2.407707,-1.14653 0.705555,-0.85549 0.79375,-2.78694 0.0088,-0.20285 0.15875,-0.34396 0.14993,-0.141112 0.352777,-0.132293 z m -4.850692,2.266593 q -0.211666,-0.89076 -0.352777,-1.38465 -0.05292,-0.20285 0.05292,-0.37923 0.105834,-0.17639 0.299861,-0.22049 l 0.01764,-0.009 q 0.202847,-0.0441 0.379236,0.0617 0.185208,0.097 0.246944,0.29986 0.176389,0.61736 0.370417,1.39347 0.05292,0.19403 -0.05292,0.37923 -0.105833,0.17639 -0.30868,0.22049 l -0.0441,0.009 q -0.202847,0.0441 -0.388056,-0.0617 -0.176388,-0.11465 -0.220486,-0.30868 z m 2.53118,0.20285 q -0.202848,0.0441 -0.379236,-0.0617 -0.176389,-0.10583 -0.229306,-0.30868 -0.07937,-0.29104 -0.379236,-1.44638 -0.05292,-0.20285 0.05292,-0.37924 0.105833,-0.176389 0.299861,-0.220486 l 0.0441,-0.0088 q 0.202847,-0.0441 0.388055,0.06174 0.185209,0.10583 0.238125,0.30868 0.246945,0.91722 0.379236,1.44639 0.05292,0.19403 -0.06174,0.37923 -0.105833,0.17639 -0.30868,0.22049 z"
         style="font-weight:bold;font-family:'Rounded Mplus 1c Bold';-inkscape-font-specification:'Rounded Mplus 1c Bold,  Bold'"
         id="path838" />
      <path
         d="m 34.224939,99.22831 q 0.167569,0.167569 0.405694,0.167569 0.238125,0 0.405694,-0.167569 0.167569,-0.16757 0.167569,-0.405694 0,-0.238125 -0.167569,-0.405695 -0.167569,-0.167569 -0.405694,-0.167569 -0.238125,0 -0.405694,0.167569 -0.16757,0.16757 -0.16757,0.405695 0,0.238124 0.16757,0.405694 z m 0.405694,-1.72861 q 0.546805,0 0.93486,0.388055 0.388056,0.388055 0.388056,0.934861 0,0.520346 -0.361597,0.908402 -0.352778,0.379232 -0.873125,0.414512 -0.07055,0 -0.07055,0.0617 v 0.0706 q -0.273403,2.28424 -1.561041,3.51896 -1.287638,1.23472 -3.686526,1.55222 -0.211667,0.0265 -0.379236,-0.10583 -0.167569,-0.12347 -0.211667,-0.32632 l -0.02646,-0.10583 q -0.03528,-0.19403 0.07937,-0.35278 0.114653,-0.16757 0.3175,-0.19403 2.063749,-0.28222 3.069165,-1.29646 1.014236,-1.01423 1.190624,-3.016246 0,-0.07056 -0.06174,-0.07056 h -4.859511 q -0.202847,0 -0.352778,-0.14993 -0.14993,-0.149931 -0.14993,-0.352778 v -0.114652 q 0,-0.202848 0.14993,-0.352778 0.149931,-0.149931 0.352778,-0.149931 h 4.7184 q 0.06174,0 0.07937,-0.07937 0.05292,-0.502708 0.423333,-0.837846 0.379236,-0.343958 0.890764,-0.343958 z"
         style="font-weight:bold;font-family:'Rounded Mplus 1c Bold';-inkscape-font-specification:'Rounded Mplus 1c Bold,  Bold'"
         id="path840" />
      <path
         d="m 40.301514,105.49893 q -1.499304,0 -2.072568,-0.72319 -0.573264,-0.73202 -0.573264,-2.68993 0,-1.59632 0.09701,-3.439583 0.01764,-0.211667 0.15875,-0.352778 0.149931,-0.141111 0.361597,-0.132291 h 0.211667 q 0.202847,0.0088 0.335139,0.158749 0.141111,0.149931 0.132291,0.352778 -0.08819,1.896175 -0.08819,3.413125 0,0.9525 0.14993,1.45521 0.15875,0.49388 0.449792,0.67027 0.291041,0.16757 0.837846,0.16757 1.525764,0 2.487083,-2.08139 0.08819,-0.1852 0.273402,-0.26458 0.194028,-0.0882 0.388056,-0.0176 l 0.114652,0.0529 q 0.194028,0.0706 0.282222,0.26458 0.08819,0.19403 0,0.37924 -1.208263,2.78694 -3.545415,2.78694 z"
         style="font-weight:bold;font-family:'Rounded Mplus 1c Bold';-inkscape-font-specification:'Rounded Mplus 1c Bold,  Bold'"
         id="path842" />
      <path
         d="m 46.139967,99.792754 q -0.202847,0 -0.352777,-0.141111 -0.141111,-0.149931 -0.141111,-0.352778 v -0.06174 q 0,-0.202847 0.14993,-0.352777 0.149931,-0.149931 0.352778,-0.149931 3.016248,-0.0088 6.235344,-0.14993 0.202847,-0.0088 0.361597,0.132291 0.15875,0.141111 0.167569,0.343958 v 0.06174 q 0.0088,0.211667 -0.132291,0.370417 -0.132292,0.14993 -0.343958,0.176389 -1.869722,0.238125 -2.813402,0.970138 -0.94368,0.72319 -0.94368,1.72861 0,0.88194 0.599722,1.39347 0.599722,0.51153 1.57868,0.51153 0.299861,0 0.582083,-0.0353 0.202847,-0.0176 0.361597,0.10583 0.167569,0.12348 0.194028,0.32632 l 0.0088,0.0794 q 0.02646,0.20285 -0.09701,0.37042 -0.123472,0.17638 -0.326319,0.20284 -0.423333,0.0441 -0.78493,0.0441 -1.543402,0 -2.460624,-0.78493 -0.917222,-0.78493 -0.917222,-2.09903 0,-0.80257 0.502708,-1.52576 0.502708,-0.72319 1.41993,-1.217083 0.0088,0 0.0088,-0.01764 h -0.0088 q -1.367013,0.05292 -3.201457,0.07056 z"
         style="font-weight:bold;font-family:'Rounded Mplus 1c Bold';-inkscape-font-specification:'Rounded Mplus 1c Bold,  Bold'"
         id="path844" />
      <path
         d="m 55.241613,99.792754 q -0.202847,0 -0.352777,-0.149931 -0.149931,-0.14993 -0.149931,-0.352777 v -0.114653 q 0,-0.202847 0.149931,-0.352777 0.14993,-0.149931 0.352777,-0.149931 h 5.759094 q 0.202848,0 0.352778,0.149931 0.149931,0.14993 0.141111,0.352777 -0.06174,2.795767 -1.367013,4.259787 -1.296458,1.46403 -3.951109,1.82563 -0.211667,0.0264 -0.388056,-0.097 -0.167569,-0.12347 -0.202847,-0.33514 l -0.01764,-0.10583 q -0.03528,-0.19403 0.07937,-0.35278 0.114653,-0.16757 0.3175,-0.19402 2.063749,-0.28223 3.069165,-1.29646 1.014236,-1.01424 1.190625,-3.007431 0,-0.07937 -0.07056,-0.07937 z"
         style="font-weight:bold;font-family:'Rounded Mplus 1c Bold';-inkscape-font-specification:'Rounded Mplus 1c Bold,  Bold'"
         id="path846" />
      <path
         d="m 64.634297,100.85109 q -0.194028,0 -0.335139,-0.13229 -0.132292,-0.14112 -0.132292,-0.33514 0,-0.19403 0.132292,-0.32632 0.141111,-0.141114 0.335139,-0.141114 h 4.815414 q 0.194028,0 0.326319,0.141114 0.141111,0.13229 0.141111,0.32632 0,0.52916 -0.15875,0.89076 -0.423333,0.94368 -1.314096,1.62278 -0.176389,0.13229 -0.388056,0.097 -0.202847,-0.0441 -0.335138,-0.21167 l -0.01764,-0.0264 q -0.123472,-0.15875 -0.08819,-0.35278 0.03528,-0.19403 0.194028,-0.3175 0.687916,-0.53799 0.94368,-1.17299 0.01764,-0.0617 -0.0441,-0.0617 z m 1.781527,0.51152 h 0.06174 q 0.202847,0 0.352777,0.14993 0.149931,0.14112 0.141111,0.34396 -0.03528,1.36702 -0.370416,2.10785 -0.335139,0.73201 -1.11125,1.20826 -0.185208,0.10584 -0.396874,0.0529 -0.202848,-0.0441 -0.32632,-0.22931 l -0.0088,-0.0176 q -0.105833,-0.16756 -0.06174,-0.35277 0.05292,-0.19403 0.220486,-0.30868 0.529166,-0.34396 0.740833,-0.88195 0.220486,-0.53798 0.255763,-1.57868 0.0088,-0.20284 0.149931,-0.34396 0.14993,-0.14993 0.352778,-0.14993 z"
         style="font-weight:bold;font-family:'Rounded Mplus 1c Bold';-inkscape-font-specification:'Rounded Mplus 1c Bold,  Bold'"
         id="path848" />
      <path
         d="m 72.218999,102.05935 -0.01764,-0.097 q -0.03528,-0.19403 0.07938,-0.3616 0.123472,-0.16757 0.326319,-0.21167 1.613958,-0.29986 3.122082,-1.00541 1.516943,-0.714378 2.619373,-1.702156 0.149931,-0.141111 0.352778,-0.132291 0.202847,0.0088 0.335139,0.15875 l 0.07055,0.07937 q 0.141111,0.15875 0.123472,0.370416 -0.0088,0.211667 -0.167569,0.352778 -0.926041,0.820208 -2.125485,1.481668 -0.06174,0.0353 -0.06174,0.10583 0,0.009 0,0.0265 0.0088,0.009 0.0088,0.0176 v 3.79236 q 0,0.20284 -0.14993,0.35277 -0.14993,0.14994 -0.352778,0.14994 h -0.264583 q -0.202847,0 -0.352777,-0.14994 -0.149931,-0.14993 -0.149931,-0.35277 v -3.23674 q 0,-0.0617 -0.06174,-0.0441 -1.314097,0.5468 -2.760485,0.8202 -0.202847,0.0353 -0.370416,-0.0882 -0.167569,-0.12347 -0.202847,-0.32632 z"
         style="font-weight:bold;font-family:'Rounded Mplus 1c Bold';-inkscape-font-specification:'Rounded Mplus 1c Bold,  Bold'"
         id="path850" />
      <path
         d="m 85.024809,105.31372 q -0.202847,0.009 -0.352777,-0.14111 -0.141111,-0.14993 -0.141111,-0.35278 v -5.970756 q 0,-0.202847 0.14993,-0.343958 0.149931,-0.149931 0.352778,-0.149931 h 0.220486 q 0.202847,0 0.352777,0.149931 0.149931,0.141111 0.149931,0.343958 v 5.168196 q 0,0.0705 0.07055,0.0529 0.732014,-0.20284 1.146527,-0.77611 0.414514,-0.58208 0.582084,-1.63159 0.03528,-0.20285 0.202847,-0.32632 0.167569,-0.12348 0.361597,-0.097 l 0.123472,0.0176 q 0.202847,0.0265 0.335139,0.19403 0.132291,0.15875 0.09701,0.3616 -0.493888,3.35138 -3.651248,3.50131 z m -4.039303,-0.32632 -0.105833,-0.15875 q -0.105834,-0.17638 -0.06174,-0.36159 0.05292,-0.19403 0.229306,-0.29986 0.714375,-0.44098 0.926041,-1.20827 0.211667,-0.76729 0.211667,-2.8134 v -1.296456 q 0,-0.202847 0.141111,-0.343958 0.14993,-0.149931 0.352777,-0.149931 h 0.211667 q 0.202847,0 0.343958,0.149931 0.14993,0.141111 0.14993,0.343958 v 1.296456 q 0,1.62278 -0.158749,2.57528 -0.15875,0.94368 -0.511528,1.4993 -0.352778,0.55563 -1.014236,0.94368 -0.185208,0.10584 -0.388055,0.0529 -0.202847,-0.0441 -0.326319,-0.22931 z"
         style="font-weight:bold;font-family:'Rounded Mplus 1c Bold';-inkscape-font-specification:'Rounded Mplus 1c Bold,  Bold'"
         id="path852" />
      <path
         d="m 90.166523,99.731018 q -0.194028,0 -0.335139,-0.132292 -0.141111,-0.141111 -0.141111,-0.335138 0,-0.194028 0.141111,-0.32632 0.141111,-0.141111 0.335139,-0.141111 h 1.349374 q 0.06174,0 0.09701,-0.07937 l 0.15875,-0.423333 q 0.07055,-0.202847 0.255764,-0.30868 0.185208,-0.114653 0.396874,-0.07937 l 0.149931,0.03528 q 0.194027,0.0441 0.291041,0.211666 0.09701,0.15875 0.03528,0.343958 -0.01764,0.0441 -0.05292,0.123472 -0.02646,0.07056 -0.03528,0.09701 -0.01764,0.07937 0.05292,0.07937 h 3.122082 q 0.194028,0 0.326319,0.141111 0.141111,0.132292 0.141111,0.32632 0,0.194027 -0.141111,0.335138 -0.132291,0.132292 -0.326319,0.132292 h -3.510137 q -0.07937,0 -0.105833,0.07055 -0.123472,0.291037 -0.299861,0.661457 0,0.0176 0.0088,0.0176 h 0.0088 q 0.46743,-0.18521 0.899582,-0.18521 1.128889,0 1.561041,0.98778 0.02646,0.0705 0.114653,0.0529 0.705555,-0.14112 1.305277,-0.22049 0.194028,-0.0265 0.352778,0.097 0.15875,0.12348 0.176389,0.32632 0.01764,0.20285 -0.105834,0.3616 -0.123472,0.15875 -0.326319,0.18521 -0.767291,0.11465 -1.181805,0.20285 -0.07937,0.0176 -0.06174,0.0882 0.05292,0.46743 0.06174,0.79375 0.0088,0.20285 -0.141111,0.35278 -0.141111,0.14993 -0.343958,0.14993 h -0.176389 q -0.202847,0 -0.352778,-0.14111 -0.14993,-0.14993 -0.158749,-0.35278 -0.0088,-0.23813 -0.02646,-0.48507 0,-0.0794 -0.07055,-0.0617 -1.41993,0.49389 -1.41993,1.06716 0,0.24694 0.132291,0.40569 0.132292,0.14993 0.573264,0.25576 0.440972,0.10584 1.234722,0.10584 0.670277,0 1.702152,-0.13229 0.202847,-0.0265 0.361597,0.10583 0.167569,0.12347 0.185208,0.32632 0.01764,0.21166 -0.114653,0.37041 -0.123472,0.16757 -0.335139,0.19403 -0.890763,0.10584 -1.799165,0.10584 -1.658055,0 -2.390069,-0.39688 -0.732013,-0.38805 -0.732013,-1.21708 0,-1.3582 2.381249,-2.15195 0.07938,-0.0176 0.0441,-0.0882 -0.202847,-0.37042 -0.714375,-0.37042 -0.829027,0 -1.913818,1.39348 -0.132292,0.16756 -0.343958,0.21166 -0.211667,0.0353 -0.388056,-0.0705 l -0.07055,-0.0441 q -0.16757,-0.10583 -0.211667,-0.29986 -0.0441,-0.19403 0.07056,-0.3616 0.793749,-1.15535 1.296457,-2.231317 0.0088,-0.02646 -0.0088,-0.05292 -0.0088,-0.02646 -0.03528,-0.02646 z"
         style="font-weight:bold;font-family:'Rounded Mplus 1c Bold';-inkscape-font-specification:'Rounded Mplus 1c Bold,  Bold'"
         id="path854" />
      <path
         d="m 98.597895,98.337546 q 0.15875,-0.141111 0.370416,-0.132291 0.211667,0.0088 0.352778,0.15875 0.273403,0.282222 0.820211,0.881944 0.14111,0.15875 0.12347,0.370416 -0.009,0.202847 -0.15875,0.343958 l -0.009,0.01764 q -0.149931,0.141108 -0.361597,0.132288 -0.202848,-0.0176 -0.343959,-0.167566 -0.273402,-0.291041 -0.846666,-0.890763 -0.141111,-0.141111 -0.132291,-0.343958 0.0088,-0.211667 0.15875,-0.343958 z m 0.01764,3.721804 q -0.202847,0 -0.343958,-0.14111 -0.141111,-0.14993 -0.141111,-0.34396 0,-0.19403 0.141111,-0.33514 0.141111,-0.14993 0.343958,-0.14993 h 0.996596 q 0.202848,0 0.352778,0.14993 0.149932,0.14111 0.149932,0.34396 v 2.23132 q 0,0.0705 0.0353,0.13229 0.14993,0.22931 0.26458,0.32632 0.0529,0.0529 0.0882,-0.0265 0.0706,-0.15875 0.23813,-0.22048 0.55562,-0.20285 1.07597,-0.47625 0.009,-0.009 0,-0.0176 0,-0.0176 -0.0176,-0.0176 h -0.92604 q -0.18521,0 -0.3175,-0.13229 -0.13229,-0.1323 -0.13229,-0.3175 0,-0.18521 0.13229,-0.3175 0.13229,-0.1323 0.3175,-0.1323 h 0.64382 q 0.0706,0 0.0706,-0.0705 v -0.3175 q 0,-0.0794 -0.0706,-0.0794 h -0.44097 q -0.16757,0 -0.29104,-0.12347 -0.12348,-0.12347 -0.12348,-0.29986 0,-0.16757 0.11466,-0.29104 0.12347,-0.12347 0.29986,-0.12347 h 0.44097 q 0.0706,0 0.0706,-0.0794 v -0.0441 q 0,-0.0441 0.0176,-0.11466 0.0176,-0.0705 -0.0529,-0.0705 -0.30868,0 -0.45861,-0.009 -0.42334,-0.0176 -0.54681,-0.13229 -0.12347,-0.11466 -0.12347,-0.48507 v -0.714378 q 0,-0.202847 0.14993,-0.352777 0.14993,-0.149931 0.35278,-0.149931 h 0.97895 q 0.0794,0 0.0794,-0.07055 v -0.194028 q 0,-0.07937 -0.0794,-0.07937 h -1.12888 q -0.17639,0 -0.29986,-0.123472 -0.12348,-0.132292 -0.12348,-0.299861 0,-0.167569 0.12348,-0.291042 0.12347,-0.132291 0.29986,-0.132291 h 1.70215 q 0.20285,0 0.35278,0.14993 0.14993,0.149931 0.14993,0.352778 v 0.846666 q 0,0.202847 -0.14993,0.352778 -0.14993,0.141111 -0.35278,0.141111 h -1.06715 q -0.0794,0 -0.0794,0.07937 v 0.202842 q 0,0.11466 0.0265,0.14112 0.0265,0.0265 0.14111,0.0353 0.0353,0 0.10583,0.009 0.0706,0 0.10584,0 0.0353,0 0.10583,0 0.0794,-0.009 0.12347,-0.009 0.14111,0 0.17639,-0.0529 0.22049,-0.352781 0.44097,-0.308683 l 0.097,0.01764 q 0.21166,0.0441 0.33514,0.211664 0.12347,0.16757 0.0882,0.37042 -0.0353,0.22048 -0.11465,0.3175 -0.0794,0.0882 -0.24695,0.12347 -0.0617,0.0176 -0.0441,0.0794 0.0265,0.0794 0.0265,0.15875 v 0.0441 q 0,0.0794 0.0706,0.0794 h 1.04069 q 0.0706,0 0.0706,-0.0794 v -0.0441 q 0,-0.0441 0.0176,-0.1323 0.0176,-0.0794 -0.0441,-0.0794 -0.29986,-0.0353 -0.39687,-0.14993 -0.097,-0.12347 -0.097,-0.44979 v -0.714378 q 0,-0.202847 0.14993,-0.352777 0.14993,-0.149931 0.35278,-0.149931 h 0.97896 q 0.0794,0 0.0794,-0.07055 v -0.194028 q 0,-0.07937 -0.0794,-0.07937 h -1.08479 q -0.17639,0 -0.29986,-0.123472 -0.12348,-0.132292 -0.12348,-0.299861 0,-0.167569 0.12348,-0.291042 0.12347,-0.132291 0.29986,-0.132291 h 1.66687 q 0.20285,0 0.34396,0.14993 0.14993,0.149931 0.14993,0.352778 v 0.846666 q 0,0.202847 -0.14993,0.352778 -0.14111,0.141111 -0.34396,0.141111 h -1.07597 q -0.0706,0 -0.0706,0.07937 v 0.202842 q 0,0.11466 0.0176,0.14112 0.0265,0.0265 0.14111,0.0353 0.0353,0 0.10584,0.009 0.0794,0 0.11465,0 0.0353,0 0.10583,0 0.0794,-0.009 0.12348,-0.009 0.13229,0 0.16756,-0.0529 0.22049,-0.352781 0.44098,-0.308683 l 0.097,0.01764 q 0.21167,0.0441 0.33514,0.211664 0.12347,0.16757 0.0882,0.37042 -0.0617,0.30868 -0.20284,0.38805 -0.14111,0.0794 -0.58209,0.097 -0.0353,0 -0.10583,0.009 -0.0706,0 -0.10583,0 -0.0617,0 -0.0441,0.0705 0.0176,0.0706 0.0176,0.11466 v 0.0441 q 0,0.0794 0.0705,0.0794 h 0.44098 q 0.17639,0 0.29104,0.12347 0.12347,0.12347 0.12347,0.29104 0,0.17639 -0.12347,0.29986 -0.12347,0.12347 -0.29104,0.12347 h -0.44098 q -0.0705,0 -0.0705,0.0794 v 0.3175 q 0,0.0705 0.0705,0.0705 h 0.61737 q 0.1852,0 0.31749,0.1323 0.1323,0.13229 0.1323,0.3175 0,0.1852 -0.1323,0.3175 -0.13229,0.13229 -0.31749,0.13229 h -0.86431 q -0.0176,0 -0.0176,0.0176 0,0.009 0.009,0.0176 0.58208,0.25576 0.87313,0.42333 0.17638,0.097 0.22048,0.29986 0.0529,0.19403 -0.0529,0.3616 -0.0176,0.0353 -0.0441,0.0617 -0.0353,0.0353 0.0265,0.0529 0.16756,0.0265 0.2734,0.16757 0.10583,0.14111 0.097,0.30868 -0.009,0.19403 -0.15875,0.33514 -0.14993,0.14111 -0.35278,0.14111 h -2.01965 q -1.65805,0 -2.54882,-0.16757 -0.88194,-0.15875 -1.331731,-0.56444 -0.06174,-0.0441 -0.114653,-0.009 -0.291041,0.26458 -0.732013,0.5909 -0.167569,0.12347 -0.370416,0.0794 -0.194028,-0.0441 -0.291042,-0.22048 l -0.03528,-0.0617 q -0.105833,-0.18521 -0.06174,-0.38805 0.05292,-0.20285 0.229306,-0.32632 0.379236,-0.27341 0.529166,-0.39688 0.05292,-0.0353 0.05292,-0.12347 v -1.98437 q 0,-0.0706 -0.07056,-0.0706 z m 4.083396,0.16757 v 0.3175 q 0,0.0705 0.0706,0.0705 h 1.04069 q 0.0706,0 0.0706,-0.0705 v -0.3175 q 0,-0.0794 -0.0706,-0.0794 h -1.04069 q -0.0706,0 -0.0706,0.0794 z m -0.14993,1.96673 q -0.29986,0.20285 -0.84666,0.4498 -0.009,0.009 -0.009,0.0264 0,0.009 0.0176,0.009 0.75847,0.0706 1.95791,0.0706 h 1.3582 q 0.0176,0 0.0176,-0.0176 0,-0.0176 -0.009,-0.0265 -0.46743,-0.25576 -1.10243,-0.5468 -0.16757,-0.0706 -0.22931,-0.23813 -0.0617,-0.16757 0.0265,-0.32632 0,-0.009 0.009,-0.009 0.009,0 0.009,-0.009 0.0441,-0.0617 -0.0353,-0.0617 h -1.01424 q -0.0176,0 -0.0353,0.0265 -0.009,0.0176 0,0.0353 0.097,0.14993 0.0617,0.33514 -0.0265,0.18521 -0.17639,0.28222 z"
         style="font-weight:bold;font-family:'Rounded Mplus 1c Bold';-inkscape-font-specification:'Rounded Mplus 1c Bold,  Bold'"
         id="path856" />
      <path
         d="m 113.29988,101.95352 q 0.4057,1.52576 1.43757,2.66347 0.14111,0.15875 0.14993,0.37041 0.0176,0.21167 -0.11465,0.37924 l -0.0617,0.0794 q -0.12347,0.15875 -0.33514,0.17639 -0.20284,0.0176 -0.35277,-0.12347 -0.61737,-0.635 -1.11125,-1.55222 -0.49389,-0.91722 -0.75848,-1.98437 -0.0176,-0.0794 -0.097,-0.0794 h -0.635 q -0.0794,0 -0.0794,0.0617 -0.12348,2.02847 -0.83785,3.45722 -0.0882,0.17639 -0.29104,0.22048 -0.20285,0.0529 -0.37042,-0.0617 l -0.11465,-0.0706 q -0.17639,-0.11465 -0.22931,-0.32632 -0.0529,-0.20284 0.0441,-0.39687 0.39687,-0.82021 0.55562,-1.79917 0.15875,-0.97896 0.15875,-2.66347 v -1.70215 q 0,-0.202848 0.14993,-0.352778 0.14994,-0.149931 0.35278,-0.149931 h 3.37785 q 0.20284,0 0.35278,0.149931 0.14993,0.14993 0.14993,0.352778 v 2.77812 q 0,0.20285 -0.14993,0.35278 -0.14994,0.14993 -0.35278,0.14993 h -0.78493 q -0.0706,0 -0.0529,0.0706 z m -1.85208,-1.0407 h 1.96673 q 0.0794,0 0.0794,-0.0794 v -1.658057 q 0,-0.07055 -0.0794,-0.07055 h -1.96673 q -0.0706,0 -0.0706,0.07055 v 1.578677 0.0794 q 0,0.0794 0.0706,0.0794 z m -4.00403,-0.69673 q -0.19402,0 -0.34396,-0.14111 -0.14111,-0.141115 -0.14111,-0.343962 0,-0.202847 0.14111,-0.343958 0.14994,-0.141111 0.34396,-0.141111 h 0.33514 q 0.0706,0 0.0706,-0.07056 v -0.855486 q 0,-0.202847 0.14993,-0.343958 0.14993,-0.14993 0.35278,-0.14993 h 0.11465 q 0.20285,0 0.35278,0.14993 0.14993,0.141111 0.14993,0.343958 v 0.855486 q 0,0.07056 0.0794,0.07056 h 0.33514 q 0.19403,0 0.33514,0.141111 0.14993,0.141111 0.14993,0.343958 0,0.202847 -0.14993,0.343962 -0.14111,0.14111 -0.33514,0.14111 h -0.33514 q -0.0794,0 -0.0794,0.0794 v 1.39347 q 0,0.0706 0.0794,0.0529 0.0353,-0.009 0.11465,-0.0353 0.0794,-0.0265 0.11466,-0.0353 0.1852,-0.0617 0.35277,0.0441 0.17639,0.097 0.20285,0.29104 0.0353,0.21167 -0.0882,0.39688 -0.11466,0.17639 -0.3175,0.24694 -0.0529,0.0176 -0.18521,0.0617 -0.12347,0.0441 -0.19403,0.0617 -0.0794,0.0176 -0.0794,0.097 v 1.44639 q 0,0.36159 -0.009,0.57326 -0.009,0.20285 -0.0529,0.37924 -0.0441,0.1852 -0.10583,0.26458 -0.0617,0.0794 -0.20285,0.14111 -0.13229,0.0617 -0.29104,0.0706 -0.14993,0.0176 -0.41452,0.0176 -0.0353,0 -0.37041,-0.0176 -0.19403,-0.009 -0.33514,-0.15875 -0.14111,-0.14112 -0.15875,-0.34396 -0.009,-0.18521 0.12347,-0.3175 0.14111,-0.13229 0.32632,-0.11465 0.10583,0.009 0.23813,0.009 0.097,0 0.11465,-0.0529 0.0176,-0.0529 0.0176,-0.3616 v -1.24354 q 0,-0.0265 -0.0176,-0.0441 -0.0176,-0.0265 -0.0441,-0.0176 -0.0441,0.009 -0.14111,0.0353 -0.097,0.0176 -0.14111,0.0265 -0.19403,0.0441 -0.35278,-0.0794 -0.15875,-0.12347 -0.16757,-0.31749 v -0.0353 q -0.0176,-0.21167 0.10584,-0.37924 0.13229,-0.16757 0.34395,-0.21167 0.0617,-0.0176 0.17639,-0.0353 0.11466,-0.0176 0.16757,-0.0353 0.0706,-0.0176 0.0706,-0.097 v -1.6757 q 0,-0.0794 -0.0706,-0.0794 z"
         style="font-weight:bold;font-family:'Rounded Mplus 1c Bold';-inkscape-font-specification:'Rounded Mplus 1c Bold,  Bold'"
         id="path858" />
    </g>
  </g>
</svg>
