<?xml version="1.0" encoding="UTF-8" standalone="no"?>
<svg
   width="153mm"
   height="53mm"
   viewBox="0 0 153 53"
   version="1.1"
   id="svg8"
   inkscape:version="1.1 (1:1.1+202105261517+ce6663b3b7)"
   sodipodi:docname="button-call-ja.svg"
   xmlns:inkscape="http://www.inkscape.org/namespaces/inkscape"
   xmlns:sodipodi="http://sodipodi.sourceforge.net/DTD/sodipodi-0.dtd"
   xmlns="http://www.w3.org/2000/svg"
   xmlns:svg="http://www.w3.org/2000/svg"
   xmlns:rdf="http://www.w3.org/1999/02/22-rdf-syntax-ns#"
   xmlns:cc="http://creativecommons.org/ns#"
   xmlns:dc="http://purl.org/dc/elements/1.1/">
  <defs
     id="defs2" />
  <sodipodi:namedview
     id="base"
     pagecolor="#ffffff"
     bordercolor="#666666"
     borderopacity="1.0"
     inkscape:pageopacity="0.0"
     inkscape:pageshadow="2"
     inkscape:zoom="0.9939163"
     inkscape:cx="294.79344"
     inkscape:cy="78.477433"
     inkscape:document-units="mm"
     inkscape:current-layer="layer1"
     inkscape:document-rotation="0"
     showgrid="false"
     inkscape:snap-bbox="true"
     inkscape:bbox-paths="true"
     inkscape:bbox-nodes="true"
     inkscape:snap-bbox-edge-midpoints="true"
     inkscape:snap-bbox-midpoints="true"
     inkscape:object-paths="true"
     inkscape:snap-intersection-paths="true"
     inkscape:snap-smooth-nodes="true"
     inkscape:snap-midpoints="true"
     inkscape:snap-object-midpoints="true"
     inkscape:snap-center="true"
     inkscape:snap-page="true"
     inkscape:snap-text-baseline="true"
     inkscape:pagecheckerboard="true"
     fit-margin-top="0"
     fit-margin-left="0"
     fit-margin-right="0"
     fit-margin-bottom="0"
     showguides="false"
     inkscape:guide-bbox="true">
    <sodipodi:guide
       position="76.500002,0"
       orientation="1,0"
       id="guide61857" />
    <sodipodi:guide
       position="76.175108,18"
       orientation="0,-1"
       id="guide61859" />
  </sodipodi:namedview>
  <metadata
     id="metadata5">
    <rdf:RDF>
      <cc:Work
         rdf:about="">
        <dc:format>image/svg+xml</dc:format>
        <dc:type
           rdf:resource="http://purl.org/dc/dcmitype/StillImage" />
      </cc:Work>
    </rdf:RDF>
  </metadata>
  <g
     inkscape:label="レイヤー 1"
     inkscape:groupmode="layer"
     id="layer1">
    <rect
       style="fill:#f0f3f3;fill-opacity:1;stroke:#59726c;stroke-width:3;stroke-linecap:round;stroke-linejoin:round;stroke-miterlimit:4;stroke-dasharray:none;stroke-opacity:1;paint-order:normal"
       id="rect4558-3"
       width="150"
       height="50"
       x="1.5"
       y="1.5"
       ry="25"
       rx="25"
       inkscape:export-xdpi="128"
       inkscape:export-ydpi="128" />
    <g
       aria-label="CALL"
       id="text4562"
       style="font-size:22.9306px;line-height:1.25;font-family:'Rounded Mplus 1c';-inkscape-font-specification:'Rounded Mplus 1c';letter-spacing:6.61458px;fill:#59716b;stroke-width:0.264582"
       transform="translate(1.5,0.163277)">
      <path
         d="m 44.406241,28.16331 q -2.384782,0 -4.310952,-1.054808 -1.90324,-1.054807 -3.003909,-2.912186 -1.077738,-1.880309 -1.077738,-4.196299 0,-2.315991 1.077738,-4.173369 1.100669,-1.88031 3.026839,-2.935117 1.926171,-1.054808 4.310953,-1.054808 1.788587,0 3.302006,0.596196 1.51342,0.596195 2.568227,1.742725 l -1.077738,1.077739 q -1.880309,-1.90324 -4.746634,-1.90324 -1.90324,0 -3.46252,0.871363 -1.559281,0.871362 -2.453575,2.384782 -0.871362,1.513419 -0.871362,3.393729 0,1.880309 0.871362,3.393728 0.894294,1.51342 2.453575,2.384783 1.55928,0.871362 3.46252,0.871362 2.889256,0 4.746634,-1.92617 l 1.077738,1.077738 q -1.054807,1.14653 -2.591157,1.765656 -1.51342,0.596196 -3.302007,0.596196 z"
         style="font-family:Montserrat;-inkscape-font-specification:Montserrat;text-align:center;text-anchor:middle"
         id="path825" />
      <path
         d="m 70.190763,23.737704 h -8.942934 l -1.92617,4.288022 h -1.765657 l 7.337792,-16.051419 h 1.673934 l 7.337792,16.051419 h -1.788587 z m -0.619127,-1.375836 -3.85234,-8.621905 -3.852341,8.621905 z"
         style="font-family:Montserrat;-inkscape-font-specification:Montserrat;text-align:center;text-anchor:middle"
         id="path827" />
      <path
         d="m 83.180029,11.974307 h 1.696864 v 14.583861 h 8.988795 v 1.467558 H 83.180029 Z"
         style="font-family:Montserrat;-inkscape-font-specification:Montserrat;text-align:center;text-anchor:middle"
         id="path829" />
      <path
         d="m 103.3007,11.974307 h 1.69687 v 14.583861 h 8.98879 v 1.467558 H 103.3007 Z"
         style="font-family:Montserrat;-inkscape-font-specification:Montserrat;text-align:center;text-anchor:middle"
         id="path831" />
    </g>
    <g
       aria-label="おくる"
       id="text57853"
       style="font-size:10.5833px;line-height:1.25;font-family:'Rounded Mplus 1c Bold';-inkscape-font-specification:'Rounded Mplus 1c Bold, ';fill:#59716b;stroke-width:0.264583">
      <path
         d="m 64.419183,40.270482 q -0.740831,0.22225 -1.12183,0.603248 -0.380999,0.380999 -0.380999,0.836081 0,0.412749 0.328082,0.740831 0.338666,0.317499 0.730248,0.317499 0.306916,0 0.412749,-0.127 0.116416,-0.126999 0.116416,-0.476248 v -1.830911 q 0,-0.08467 -0.08467,-0.0635 z m -0.306916,3.693572 q -1.05833,0 -1.799161,-0.645581 -0.740831,-0.656165 -0.740831,-1.608662 0,-0.910164 0.740831,-1.650995 0.751414,-0.740831 2.106077,-1.079496 0.08467,-0.02117 0.08467,-0.116417 v -1.333495 q 0,-0.09525 -0.09525,-0.09525 h -1.809744 q -0.232833,0 -0.402165,-0.158749 -0.15875,-0.169333 -0.15875,-0.402166 0,-0.232832 0.15875,-0.391582 0.169332,-0.169333 0.402165,-0.169333 h 1.809744 q 0.09525,0 0.09525,-0.09525 v -0.613832 q 0,-0.243416 0.179916,-0.423332 0.179916,-0.179916 0.423332,-0.179916 h 0.137583 q 0.243416,0 0.423332,0.179916 0.179916,0.179916 0.179916,0.423332 v 0.613832 q 0,0.09525 0.08467,0.09525 h 1.672162 q 0.232832,0 0.402165,0.169333 0.169333,0.15875 0.169333,0.391582 0,0.232833 -0.169333,0.402166 -0.169333,0.158749 -0.402165,0.158749 h -1.672162 q -0.08467,0 -0.08467,0.09525 v 1.142996 q 0,0.08467 0.09525,0.08467 0.169332,-0.01058 0.539748,-0.01058 1.566328,0 2.529409,0.730248 0.96308,0.730248 0.96308,1.767411 0,2.254243 -2.434159,2.762241 -0.253999,0.05292 -0.465665,-0.09525 -0.211666,-0.137583 -0.275166,-0.391582 l -0.01058,-0.03175 q -0.05292,-0.232832 0.07408,-0.433915 0.137583,-0.201083 0.370415,-0.253999 0.709081,-0.169333 1.037164,-0.529165 0.328082,-0.370416 0.328082,-0.952497 0,-0.529165 -0.582082,-0.910164 -0.571498,-0.391582 -1.534578,-0.391582 -0.370416,0 -0.539748,0.01058 -0.09525,0 -0.09525,0.09525 v 2.11666 q 0,0.973664 -0.380999,1.344079 -0.380999,0.380999 -1.354662,0.380999 z m 5.683232,-7.609393 q 0.571498,0.772581 0.99483,1.449912 0.127,0.201083 0.0635,0.444499 -0.05292,0.232833 -0.253999,0.349249 -0.211666,0.116416 -0.444499,0.0635 -0.232833,-0.0635 -0.359832,-0.264583 -0.507999,-0.793747 -0.931331,-1.375829 -0.137583,-0.190499 -0.105833,-0.423332 0.03175,-0.232832 0.22225,-0.370415 0.201082,-0.137583 0.433915,-0.09525 0.243416,0.03175 0.380999,0.222249 z"
         id="path61941" />
      <path
         d="m 74.663797,41.445229 q -1.15358,-0.793748 -1.428746,-1.100664 -0.264582,-0.306915 -0.264582,-0.825497 0,-0.560915 0.285749,-0.867831 0.285749,-0.306915 1.439328,-1.047746 1.873244,-1.21708 3.27024,-2.264826 0.201083,-0.148167 0.455082,-0.116417 0.253999,0.02117 0.412749,0.22225 l 0.105833,0.137583 q 0.158749,0.190499 0.126999,0.433915 -0.02117,0.243416 -0.222249,0.380999 -1.746245,1.291162 -3.259656,2.264826 -0.634998,0.402165 -0.814914,0.550331 -0.179917,0.148167 -0.179917,0.306916 0,0.148166 0.15875,0.296332 0.158749,0.148167 0.740831,0.539749 1.830911,1.238246 3.682988,2.730491 0.1905,0.148166 0.201083,0.402165 0.02117,0.243416 -0.148166,0.423332 l -0.116417,0.137583 q -0.169332,0.179916 -0.423332,0.1905 -0.253999,0.02117 -0.455081,-0.137583 -1.619245,-1.312329 -3.566572,-2.656408 z"
         id="path61943" />
      <path
         d="m 87.543652,42.926891 q 0.148166,-0.359833 0.148166,-0.582082 0,-0.328082 -0.253999,-0.497415 -0.253999,-0.179916 -0.910164,-0.179916 -0.529165,0 -0.814914,0.179916 -0.275165,0.169333 -0.275165,0.423332 0,0.740831 1.79916,0.740831 h 0.1905 q 0.07408,0 0.116416,-0.08467 z m -3.513655,-2.412993 q -0.211666,0.09525 -0.423332,0.02117 -0.201083,-0.07408 -0.306916,-0.275166 -0.105833,-0.201083 -0.04233,-0.423332 0.0635,-0.232833 0.264582,-0.349249 l 4.466153,-2.698741 0.01058,-0.01058 -0.01058,-0.01058 h -3.630072 q -0.232833,0 -0.412749,-0.169333 -0.169332,-0.169332 -0.169332,-0.412748 0,-0.243416 0.169332,-0.412749 0.179916,-0.169333 0.412749,-0.169333 h 5.556232 q 0.243416,0 0.423332,0.179916 0.1905,0.169333 0.1905,0.412749 0.02117,0.582081 -0.518582,0.888997 l -2.952741,1.640412 v 0.01058 h 0.02117 q 0.698498,-0.137583 1.280579,-0.137583 1.513412,0 2.285993,0.624415 0.783164,0.624414 0.783164,1.777994 0,1.502829 -1.09008,2.328326 -1.09008,0.814914 -3.100907,0.814914 -1.576911,0 -2.360075,-0.486832 -0.783164,-0.476248 -0.783164,-1.386412 0,-0.698498 0.666747,-1.174746 0.666748,-0.486832 1.841495,-0.486832 1.206496,0 1.746244,0.402165 0.539748,0.402166 0.539748,1.18533 0,0.190499 -0.05292,0.476248 -0.01058,0.03175 0.01058,0.05292 0.03175,0.01058 0.05292,0 1.047746,-0.455082 1.047746,-1.598078 0,-0.730248 -0.518581,-1.100664 -0.507999,-0.370415 -1.629829,-0.370415 -1.89441,0 -3.767654,0.857247 z"
         id="path61945" />
    </g>
  </g>
</svg>
