<?xml version="1.0" encoding="UTF-8" standalone="no"?>
<svg
   width="153mm"
   height="33mm"
   viewBox="0 0 153 33"
   version="1.1"
   id="svg8"
   inkscape:version="1.1 (1:1.1+202105261517+ce6663b3b7)"
   sodipodi:docname="button-call-auto-threshold.svg"
   xmlns:inkscape="http://www.inkscape.org/namespaces/inkscape"
   xmlns:sodipodi="http://sodipodi.sourceforge.net/DTD/sodipodi-0.dtd"
   xmlns="http://www.w3.org/2000/svg"
   xmlns:svg="http://www.w3.org/2000/svg"
   xmlns:rdf="http://www.w3.org/1999/02/22-rdf-syntax-ns#"
   xmlns:cc="http://creativecommons.org/ns#"
   xmlns:dc="http://purl.org/dc/elements/1.1/">
  <defs
     id="defs2" />
  <sodipodi:namedview
     id="base"
     pagecolor="#ffffff"
     bordercolor="#666666"
     borderopacity="1.0"
     inkscape:pageopacity="0.0"
     inkscape:pageshadow="2"
     inkscape:zoom="0.98903329"
     inkscape:cx="385.22465"
     inkscape:cy="62.687475"
     inkscape:document-units="mm"
     inkscape:current-layer="layer1"
     inkscape:document-rotation="0"
     showgrid="false"
     inkscape:snap-bbox="true"
     inkscape:bbox-paths="true"
     inkscape:bbox-nodes="true"
     inkscape:snap-bbox-edge-midpoints="true"
     inkscape:snap-bbox-midpoints="true"
     inkscape:object-paths="true"
     inkscape:snap-intersection-paths="true"
     inkscape:snap-smooth-nodes="true"
     inkscape:snap-midpoints="true"
     inkscape:snap-object-midpoints="true"
     inkscape:snap-center="true"
     inkscape:snap-page="true"
     inkscape:snap-text-baseline="true"
     inkscape:pagecheckerboard="true"
     showguides="false"
     inkscape:guide-bbox="true"
     fit-margin-top="0"
     fit-margin-left="0"
     fit-margin-right="0"
     fit-margin-bottom="0">
    <sodipodi:guide
       position="76.500001,-20"
       orientation="1,0"
       id="guide68628" />
    <sodipodi:guide
       position="-2.8401154e-08,16.500001"
       orientation="0,-1"
       id="guide88809" />
    <sodipodi:guide
       position="23.000001,16.500001"
       orientation="-0.60876143,-0.79335334"
       id="guide95265" />
    <sodipodi:guide
       position="16.5,16.500094"
       orientation="0.70710678,-0.70710678"
       id="guide18451" />
    <sodipodi:guide
       position="16.5,16.500001"
       orientation="-0.70710678,-0.70710678"
       id="guide18511" />
    <sodipodi:guide
       position="16.5,31.5"
       orientation="1,0"
       id="guide28489" />
  </sodipodi:namedview>
  <metadata
     id="metadata5">
    <rdf:RDF>
      <cc:Work
         rdf:about="">
        <dc:format>image/svg+xml</dc:format>
        <dc:type
           rdf:resource="http://purl.org/dc/dcmitype/StillImage" />
      </cc:Work>
    </rdf:RDF>
  </metadata>
  <g
     inkscape:label="レイヤー 1"
     inkscape:groupmode="layer"
     id="layer1">
    <rect
       style="fill:#f0f3f3;fill-opacity:1;stroke:#59726c;stroke-width:3;stroke-linecap:round;stroke-linejoin:round;stroke-miterlimit:4;stroke-dasharray:none;stroke-opacity:1;paint-order:normal"
       id="rect4558-3"
       width="150"
       height="30"
       x="1.5"
       y="1.5"
       ry="15"
       rx="15"
       inkscape:export-xdpi="128"
       inkscape:export-ydpi="128" />
    <g
       aria-label="LISTEN"
       id="text5490"
       style="font-size:22.9306px;line-height:1.25;font-family:'Mplus 1p';-inkscape-font-specification:'Mplus 1p';letter-spacing:2.64583px;fill:#f0f3f3;stroke-width:0.070004"
       transform="translate(0,0.437319)" />
    <path
       style="mix-blend-mode:multiply;fill:#cce5e0;fill-opacity:1;stroke:none;stroke-width:3;stroke-linecap:round;stroke-linejoin:round;stroke-miterlimit:4;stroke-dasharray:none;stroke-opacity:1;paint-order:normal"
       d="M 148.17812,4.821927 120,33.000052 h 10.00042 l 22.04775,-22.047748 c -0.82723,-2.3312488 -2.15921,-4.4195415 -3.87005,-6.130377 z"
       id="path26993" />
    <path
       style="color:#000000;fill:none;stroke:#f0f3f3;stroke-width:5;stroke-linejoin:round;stroke-miterlimit:4;stroke-dasharray:none;stroke-opacity:1;paint-order:stroke fill markers"
       d="m 127.78467,8.7218537 c 4.28739,4.2873883 4.28739,11.2692533 0,15.5566413 l -1.41406,-1.416016 c 3.52309,-3.52309 3.52309,-9.203472 0,-12.726562 z"
       id="path17448-6-6" />
    <path
       style="mix-blend-mode:multiply;fill:#cce5e0;fill-opacity:1;stroke:none;stroke-width:3;stroke-linecap:round;stroke-linejoin:round;stroke-miterlimit:4;stroke-dasharray:none;stroke-opacity:1;paint-order:normal"
       d="M 42.999813,-1.0456802e-6 10.952157,32.047655 c 1.732653,0.614817 3.599341,0.952397 5.547981,0.952397 h 3.500046 L 52.999718,-1.0456802e-6 Z"
       id="path26991" />
    <path
       style="mix-blend-mode:multiply;fill:#cce5e0;fill-opacity:1;stroke:none;stroke-width:3;stroke-linecap:round;stroke-linejoin:round;stroke-miterlimit:4;stroke-dasharray:none;stroke-opacity:1;paint-order:normal"
       d="M 23.000001,-1.0456802e-6 0.95173501,22.048268 c 0.82723829,2.33104 2.15985719,4.418631 3.87056309,6.12934 L 32.999907,-1.0456802e-6 Z"
       id="rect4558-3-6" />
    <path
       style="color:#000000;fill:none;stroke:#f0f3f3;stroke-width:5;stroke-linejoin:round;stroke-miterlimit:4;stroke-dasharray:none;stroke-opacity:1;paint-order:stroke fill markers"
       d="m 25.215993,8.722276 c -4.287387,4.287388 -4.287388,11.269253 0,15.556641 l 1.414062,-1.416016 c -3.523091,-3.52309 -3.52309,-9.203472 0,-12.726562 z"
       id="path17448-6" />
    <path
       d="M 39.373849,10.933185 H 34.315031 L 34.674864,9.09169 h 12.255461 l -0.380999,1.841495 H 41.490509 L 38.887017,23.90831 h -2.095494 z"
       style="font-style:italic;font-weight:500;font-size:21.1666px;line-height:1.25;font-family:Montserrat;-inkscape-font-specification:'Montserrat Medium Italic';fill:#59726c;stroke:#f0f3f3;stroke-width:5;stroke-miterlimit:4;stroke-dasharray:none;stroke-opacity:1;stroke-linejoin:round"
       id="path44218-0" />
    <path
       d="M 39.373849,10.933185 H 34.315031 L 34.674864,9.0916904 H 46.930325 L 46.549326,10.933185 H 41.490509 L 38.887017,23.90831 h -2.095494 z"
       style="font-style:italic;font-weight:500;font-size:21.1666px;line-height:1.25;font-family:Montserrat;-inkscape-font-specification:'Montserrat Medium Italic';fill:#59726c;stroke-width:0.264582"
       id="path44218" />
    <path
       id="path17448"
       style="fill:none;stroke:#59726c;stroke-width:2;stroke-linecap:butt;stroke-linejoin:round;paint-order:stroke fill markers;stroke-opacity:1"
       d="m 25.922647,9.4289308 c -3.905242,3.9052432 -3.905243,10.2368932 0,14.1421362"
       sodipodi:nodetypes="cc" />
    <path
       style="color:#000000;fill:none;stroke:#f0f3f3;stroke-width:5;stroke-linejoin:round;stroke-miterlimit:4;stroke-dasharray:none;stroke-opacity:1;paint-order:stroke fill markers"
       d="m 28.751149,12.257433 c -2.334768,2.334768 -2.334768,6.149607 0,8.484375 l 1.414062,-1.414063 c -1.57047,-1.57047 -1.57047,-4.085778 0,-5.65625 z"
       id="path18829-2" />
    <path
       id="path18829"
       style="fill:none;stroke:#59726c;stroke-width:2;stroke-linecap:butt;stroke-linejoin:round;paint-order:stroke fill markers;stroke-opacity:1"
       d="m 29.45818,12.964464 c -1.952621,1.952622 -1.952621,5.118447 0,7.071068"
       sodipodi:nodetypes="cc" />
    <path
       id="path17448-7"
       style="fill:none;stroke:#59726c;stroke-width:2;stroke-linecap:butt;stroke-linejoin:round;paint-order:stroke fill markers;stroke-opacity:1"
       d="m 127.07764,9.4291067 c 3.90524,3.9052423 3.90524,10.2368923 0,14.1421353"
       sodipodi:nodetypes="cc" />
    <path
       id="path18829-5"
       style="fill:none;stroke:#59726c;stroke-width:2;stroke-linecap:butt;stroke-linejoin:round;paint-order:stroke fill markers;stroke-opacity:1"
       d="m 123.54211,12.964639 c 1.95262,1.952622 1.95262,5.118447 0,7.071068"
       sodipodi:nodetypes="cc" />
    <path
       d="m 52.560627,24.077643 q -2.624658,0 -4.10632,-1.312329 -1.460495,-1.31233 -1.460495,-3.640655 0,-0.698498 0.169332,-1.608662 l 1.672162,-8.4243066 h 2.11666 L 49.258638,17.49483 q -0.148166,0.719665 -0.148166,1.396996 0,1.629828 0.93133,2.476492 0.93133,0.825497 2.709325,0.825497 1.98966,0 3.17499,-1.142996 1.206496,-1.142996 1.693327,-3.577155 l 1.672162,-8.3819736 h 2.074327 L 59.672605,17.62183 q -0.656165,3.217323 -2.455326,4.847151 -1.777994,1.608662 -4.656652,1.608662 z"
       style="font-style:italic;font-weight:500;font-size:21.1666px;line-height:1.25;font-family:Montserrat;-inkscape-font-specification:'Montserrat Medium Italic';fill:#59726c;stroke-width:0.264582"
       id="path44220" />
    <path
       d="M 78.447347,9.0916904 75.484023,23.90831 H 73.748362 L 67.123217,12.499513 64.858391,23.90831 h -2.11666 L 65.705055,9.0916904 h 1.735661 L 74.065861,20.500487 76.330687,9.0916904 Z"
       style="font-style:italic;font-weight:500;font-size:21.1666px;line-height:1.25;font-family:Montserrat;-inkscape-font-specification:'Montserrat Medium Italic';fill:#59726c;stroke-width:0.264582"
       id="path44222" />
    <path
       d="m 82.892299,9.0916904 h 2.11666 L 82.045635,23.90831 h -2.11666 z"
       style="font-style:italic;font-weight:500;font-size:21.1666px;line-height:1.25;font-family:Montserrat;-inkscape-font-specification:'Montserrat Medium Italic';fill:#59726c;stroke-width:0.264582"
       id="path44224" />
    <path
       d="M 102.19623,9.0916904 99.232902,23.90831 H 97.497241 L 90.872095,12.499513 88.607269,23.90831 h -2.11666 L 89.453933,9.0916904 h 1.735661 L 97.81474,20.500487 100.07957,9.0916904 Z"
       style="font-style:italic;font-weight:500;font-size:21.1666px;line-height:1.25;font-family:Montserrat;-inkscape-font-specification:'Montserrat Medium Italic';fill:#59726c;stroke-width:0.264582"
       id="path44226" />
    <path
       d="m 115.44648,16.415334 h 2.03199 l -1.16416,5.820815 q -1.05833,0.86783 -2.47649,1.354662 -1.41816,0.486832 -2.92099,0.486832 -2.159,0 -3.76766,-0.783164 -1.58749,-0.783165 -2.45532,-2.18016 -0.84667,-1.418162 -0.84667,-3.280823 0,-2.476492 1.12183,-4.508486 1.12183,-2.031993 3.19616,-3.217323 2.07433,-1.1853293 4.80482,-1.1853293 1.92616,0 3.36549,0.5926647 1.46049,0.5926646 2.34949,1.6933276 l -1.524,1.291163 q -0.74083,-0.867831 -1.79916,-1.269996 -1.05833,-0.423332 -2.47649,-0.423332 -2.07433,0 -3.64065,0.910164 -1.56633,0.910164 -2.43416,2.497658 -0.84667,1.566329 -0.84667,3.492489 0,2.05316 1.3335,3.280823 1.33349,1.206496 3.85232,1.206496 1.84149,0 3.34432,-0.93133 z"
       style="font-style:italic;font-weight:500;font-size:21.1666px;line-height:1.25;font-family:Montserrat;-inkscape-font-specification:'Montserrat Medium Italic';fill:#59726c;stroke-width:0.264582"
       id="path44228" />
  </g>
</svg>
