<?xml version="1.0" encoding="UTF-8" standalone="no"?>
<svg
   width="153mm"
   height="53mm"
   viewBox="0 0 153 53"
   version="1.1"
   id="svg8"
   inkscape:version="1.1 (1:1.1+202105261517+ce6663b3b7)"
   sodipodi:docname="button-listen-ja.svg"
   xmlns:inkscape="http://www.inkscape.org/namespaces/inkscape"
   xmlns:sodipodi="http://sodipodi.sourceforge.net/DTD/sodipodi-0.dtd"
   xmlns="http://www.w3.org/2000/svg"
   xmlns:svg="http://www.w3.org/2000/svg"
   xmlns:rdf="http://www.w3.org/1999/02/22-rdf-syntax-ns#"
   xmlns:cc="http://creativecommons.org/ns#"
   xmlns:dc="http://purl.org/dc/elements/1.1/">
  <defs
     id="defs2" />
  <sodipodi:namedview
     id="base"
     pagecolor="#ffffff"
     bordercolor="#666666"
     borderopacity="1.0"
     inkscape:pageopacity="0.0"
     inkscape:pageshadow="2"
     inkscape:zoom="2.8224846"
     inkscape:cx="274.93507"
     inkscape:cy="154.11953"
     inkscape:document-units="mm"
     inkscape:current-layer="layer1"
     inkscape:document-rotation="0"
     showgrid="false"
     inkscape:snap-bbox="true"
     inkscape:bbox-paths="true"
     inkscape:bbox-nodes="true"
     inkscape:snap-bbox-edge-midpoints="true"
     inkscape:snap-bbox-midpoints="true"
     inkscape:object-paths="true"
     inkscape:snap-intersection-paths="true"
     inkscape:snap-smooth-nodes="true"
     inkscape:snap-midpoints="true"
     inkscape:snap-object-midpoints="true"
     inkscape:snap-center="true"
     inkscape:snap-page="true"
     inkscape:snap-text-baseline="true"
     inkscape:pagecheckerboard="true"
     showguides="true"
     inkscape:guide-bbox="true"
     fit-margin-top="0"
     fit-margin-left="0"
     fit-margin-right="0"
     fit-margin-bottom="0">
    <sodipodi:guide
       position="143.73076,33.274026"
       orientation="0,-1"
       id="guide13675" />
    <sodipodi:guide
       position="76.500002,18"
       orientation="0,-1"
       id="guide68626" />
    <sodipodi:guide
       position="76.500002,0"
       orientation="1,0"
       id="guide68628" />
  </sodipodi:namedview>
  <metadata
     id="metadata5">
    <rdf:RDF>
      <cc:Work
         rdf:about="">
        <dc:format>image/svg+xml</dc:format>
        <dc:type
           rdf:resource="http://purl.org/dc/dcmitype/StillImage" />
      </cc:Work>
    </rdf:RDF>
  </metadata>
  <g
     inkscape:label="レイヤー 1"
     inkscape:groupmode="layer"
     id="layer1">
    <rect
       style="fill:#59716b;fill-opacity:1;stroke:#59726c;stroke-width:3;stroke-linecap:round;stroke-linejoin:round;stroke-miterlimit:4;stroke-dasharray:none;stroke-opacity:1;paint-order:markers stroke fill"
       id="rect4558-3"
       width="150"
       height="50"
       x="1.5"
       y="1.5"
       ry="25"
       rx="25"
       inkscape:export-xdpi="128"
       inkscape:export-ydpi="128" />
    <g
       aria-label="LISTEN"
       id="text5490"
       style="font-size:22.9306px;line-height:1.25;font-family:'Mplus 1p';-inkscape-font-specification:'Mplus 1p';letter-spacing:2.64583px;fill:#f0f3f3;stroke-width:0.070004"
       transform="translate(0,0.437319)">
      <path
         d="m 31.774832,11.700265 h 1.696864 v 14.583861 h 8.988795 v 1.467558 H 31.774832 Z"
         style="font-family:Montserrat;-inkscape-font-specification:Montserrat"
         id="path23138" />
      <path
         d="M 47.926756,11.700265 H 49.62362 V 27.751684 H 47.926756 Z"
         style="font-family:Montserrat;-inkscape-font-specification:Montserrat"
         id="path23140" />
      <path
         d="m 61.923191,27.889268 q -1.788587,0 -3.43959,-0.573265 -1.628072,-0.573265 -2.522366,-1.51342 l 0.664988,-1.307044 q 0.871363,0.871363 2.31599,1.421697 1.444628,0.527404 2.980978,0.527404 2.155477,0 3.233215,-0.77964 1.077738,-0.802571 1.077738,-2.063754 0,-0.963085 -0.596196,-1.53635 -0.573265,-0.573265 -1.421697,-0.871363 -0.848432,-0.321029 -2.361852,-0.687918 -1.811517,-0.458612 -2.889255,-0.871363 -1.077738,-0.435681 -1.857379,-1.307044 -0.756709,-0.871363 -0.756709,-2.361852 0,-1.215322 0.642056,-2.201337 0.642057,-1.008947 1.972032,-1.605142 1.329975,-0.596196 3.302006,-0.596196 1.375836,0 2.68288,0.38982 1.329975,0.36689 2.29306,1.031877 l -0.573265,1.352906 q -1.008946,-0.664988 -2.155476,-0.986016 -1.14653,-0.343959 -2.247199,-0.343959 -2.109615,0 -3.187353,0.825501 -1.054808,0.802571 -1.054808,2.086685 0,0.963085 0.573265,1.559281 0.596196,0.573265 1.467559,0.894293 0.894293,0.298098 2.384782,0.664987 1.765656,0.435682 2.843394,0.871363 1.100669,0.412751 1.857379,1.284114 0.75671,0.848432 0.75671,2.31599 0,1.215322 -0.664988,2.224268 -0.642057,0.986016 -1.994962,1.582212 -1.352905,0.573265 -3.324937,0.573265 z"
         style="font-family:Montserrat;-inkscape-font-specification:Montserrat"
         id="path23142" />
      <path
         d="M 77.134978,13.167823 H 71.494051 V 11.700265 H 84.47277 v 1.467558 h -5.640927 v 14.583861 h -1.696865 z"
         style="font-family:Montserrat;-inkscape-font-specification:Montserrat"
         id="path23144" />
      <path
         d="m 101.17504,26.284126 v 1.467558 H 89.824396 V 11.700265 h 11.006684 v 1.467558 h -9.309819 v 5.709719 h 8.300877 v 1.444628 h -8.300877 v 5.961956 z"
         style="font-family:Montserrat;-inkscape-font-specification:Montserrat"
         id="path23146" />
      <path
         d="m 121.22517,11.700265 v 16.051419 h -1.39877 l -10.31877,-13.02458 v 13.02458 h -1.69686 V 11.700265 h 1.39876 l 10.3417,13.02458 v -13.02458 z"
         style="font-family:Montserrat;-inkscape-font-specification:Montserrat"
         id="path23148" />
    </g>
    <g
       aria-label="うけとる"
       id="text62676"
       style="font-size:10.5833px;line-height:1.25;font-family:'Rounded Mplus 1c Bold';-inkscape-font-specification:'Rounded Mplus 1c Bold, ';fill:#f0f3f3;stroke-width:0.264583">
      <path
         d="m 56.632375,39.063988 -0.02117,-0.0635 q -0.05292,-0.243416 0.07408,-0.455082 0.137583,-0.211666 0.380999,-0.264583 2.550575,-0.571498 4.243903,-0.571498 1.650995,0 2.444742,0.634998 0.804331,0.624415 0.804331,1.661578 0,1.513412 -1.354663,2.497659 -1.344079,0.973663 -3.97932,1.259413 -0.253999,0.03175 -0.465665,-0.127 -0.201083,-0.148166 -0.254,-0.402165 l -0.01058,-0.08467 q -0.04233,-0.232832 0.08467,-0.423332 0.137583,-0.201082 0.380999,-0.232832 2.137827,-0.285749 3.164407,-0.910164 1.02658,-0.634998 1.02658,-1.502829 0,-1.100663 -1.904994,-1.100663 -1.344079,0 -3.884071,0.539748 -0.243416,0.05292 -0.465665,-0.07408 -0.211666,-0.137583 -0.264583,-0.380998 z m 2.074327,-3.958155 q 1.809744,0.22225 3.735905,0.275166 0.243416,0.01058 0.423332,0.1905 0.179916,0.169332 0.179916,0.412748 v 0.07408 q 0,0.243416 -0.179916,0.423332 -0.169333,0.179917 -0.412749,0.169333 -1.873244,-0.05292 -3.905237,-0.306915 -0.243416,-0.03175 -0.402166,-0.232833 -0.148166,-0.201083 -0.116416,-0.444499 l 0.01058,-0.04233 q 0.03175,-0.243416 0.222249,-0.391582 0.201083,-0.158749 0.444499,-0.127 z"
         id="path68766" />
      <path
         d="m 70.327145,38.17499 q -0.243416,0 -0.423332,-0.179916 -0.179916,-0.179916 -0.179916,-0.423332 0,-0.243416 0.179916,-0.423332 0.179916,-0.179916 0.423332,-0.179916 h 2.487075 q 0.08467,0 0.08467,-0.08467 v -1.291163 q 0,-0.243416 0.179916,-0.412748 Q 73.258719,35 73.502135,35 h 0.137583 q 0.243416,0 0.423332,0.179917 0.179916,0.169332 0.179916,0.412748 v 1.291163 q 0,0.08467 0.09525,0.08467 h 0.857247 q 0.243416,0 0.423332,0.179916 0.179916,0.179916 0.179916,0.423332 0,0.243416 -0.179916,0.423332 -0.179916,0.179916 -0.423332,0.179916 h -0.857247 q -0.09525,0 -0.09525,0.08467 v 1.185329 q 0,2.010827 -0.529165,2.899824 -0.529165,0.878414 -2.031994,1.344079 -0.243416,0.07408 -0.465665,-0.04233 -0.222249,-0.116416 -0.306915,-0.359832 l -0.03175,-0.07408 q -0.08467,-0.222249 0.02117,-0.433915 0.116416,-0.211666 0.349249,-0.296333 0.560915,-0.179916 0.857247,-0.359832 0.306916,-0.190499 0.497415,-0.539748 0.1905,-0.359832 0.243416,-0.825498 0.05292,-0.465665 0.05292,-1.312329 v -1.185329 q 0,-0.08467 -0.08467,-0.08467 z m -2.370659,5.619732 q -0.253999,0.03175 -0.465665,-0.116416 -0.211666,-0.137583 -0.264583,-0.391582 -0.391582,-1.788578 -0.391582,-3.809988 0,-2.02141 0.391582,-3.809988 0.05292,-0.253999 0.264583,-0.391582 0.211666,-0.148166 0.465665,-0.116416 l 0.201083,0.02117 q 0.232832,0.02117 0.370415,0.222249 0.137583,0.201083 0.08467,0.433915 -0.370415,1.672161 -0.370415,3.640655 0,1.968494 0.370415,3.640655 0.05292,0.232833 -0.08467,0.433916 -0.137583,0.201082 -0.370415,0.222249 z"
         id="path68768" />
      <path
         d="m 81.788839,43.815889 q -1.957911,0 -2.952741,-0.656165 -0.99483,-0.656164 -0.99483,-1.915577 0,-1.375829 1.640411,-2.465909 0.0635,-0.05292 0.05292,-0.126999 v -0.03175 q -0.402166,-1.703911 -0.603248,-2.836324 -0.04233,-0.243416 0.09525,-0.444499 0.148166,-0.211666 0.391582,-0.253999 l 0.264583,-0.04233 Q 79.926178,35 80.12726,35.148167 q 0.201083,0.148166 0.254,0.391582 0.232832,1.248829 0.507998,2.391825 0.02117,0.105833 0.105833,0.0635 1.428745,-0.603248 3.450156,-1.100663 0.243416,-0.05292 0.455082,0.08467 0.211666,0.126999 0.253999,0.370415 l 0.02117,0.09525 q 0.05292,0.243416 -0.08467,0.455082 -0.137583,0.211666 -0.380999,0.264582 -2.677575,0.656165 -4.032237,1.439329 -1.354662,0.783164 -1.354662,1.566328 0,1.375829 2.465909,1.375829 1.407578,0 2.825741,-0.190499 0.243415,-0.03175 0.433915,0.116416 0.201082,0.148166 0.232832,0.391582 l 0.01058,0.07408 q 0.03175,0.243416 -0.127,0.444499 -0.148166,0.211666 -0.391582,0.243416 -1.344079,0.190499 -2.98449,0.190499 z"
         id="path68770" />
      <path
         d="m 92.520285,42.672893 q 0.148166,-0.359832 0.148166,-0.582082 0,-0.328082 -0.253999,-0.497415 -0.253999,-0.179916 -0.910164,-0.179916 -0.529164,0 -0.814914,0.179916 -0.275165,0.169333 -0.275165,0.423332 0,0.740831 1.799161,0.740831 h 0.190499 q 0.07408,0 0.116416,-0.08467 z M 89.00663,40.2599 q -0.211666,0.09525 -0.423332,0.02117 -0.201083,-0.07408 -0.306916,-0.275166 -0.105833,-0.201082 -0.04233,-0.423332 0.0635,-0.232832 0.264582,-0.349249 l 4.466153,-2.698741 0.01058,-0.01058 -0.01058,-0.01058 h -3.630072 q -0.232833,0 -0.412749,-0.169332 -0.169332,-0.169333 -0.169332,-0.412749 0,-0.243416 0.169332,-0.412749 0.179916,-0.169333 0.412749,-0.169333 h 5.556232 q 0.243416,0 0.423332,0.179916 0.1905,0.169333 0.1905,0.412749 0.02117,0.582082 -0.518582,0.888997 l -2.952741,1.640412 v 0.01058 h 0.02117 q 0.698498,-0.137583 1.280579,-0.137583 1.513412,0 2.285993,0.624415 0.783164,0.624415 0.783164,1.777994 0,1.502829 -1.09008,2.328326 -1.090079,0.814914 -3.100906,0.814914 -1.576912,0 -2.360076,-0.486832 -0.783164,-0.476248 -0.783164,-1.386412 0,-0.698498 0.666747,-1.174746 0.666748,-0.486832 1.841495,-0.486832 1.206496,0 1.746244,0.402165 0.539748,0.402166 0.539748,1.18533 0,0.190499 -0.05292,0.476249 -0.01058,0.03175 0.01058,0.05292 0.03175,0.01058 0.05292,0 1.047746,-0.455082 1.047746,-1.598078 0,-0.730248 -0.518581,-1.100663 -0.507999,-0.370416 -1.629829,-0.370416 -1.89441,0 -3.767654,0.857247 z"
         id="path68772" />
    </g>
  </g>
</svg>
