<?xml version="1.0" encoding="UTF-8" standalone="no"?>
<svg
   width="153mm"
   height="53mm"
   viewBox="0 0 153 53"
   version="1.1"
   id="svg8"
   inkscape:version="1.1 (1:1.1+202105261517+ce6663b3b7)"
   sodipodi:docname="button-listen-ja.svg"
   xmlns:inkscape="http://www.inkscape.org/namespaces/inkscape"
   xmlns:sodipodi="http://sodipodi.sourceforge.net/DTD/sodipodi-0.dtd"
   xmlns="http://www.w3.org/2000/svg"
   xmlns:svg="http://www.w3.org/2000/svg"
   xmlns:rdf="http://www.w3.org/1999/02/22-rdf-syntax-ns#"
   xmlns:cc="http://creativecommons.org/ns#"
   xmlns:dc="http://purl.org/dc/elements/1.1/">
  <defs
     id="defs2" />
  <sodipodi:namedview
     id="base"
     pagecolor="#ffffff"
     bordercolor="#666666"
     borderopacity="1.0"
     inkscape:pageopacity="0.0"
     inkscape:pageshadow="2"
     inkscape:zoom="1.1827604"
     inkscape:cx="356.79247"
     inkscape:cy="136.96772"
     inkscape:document-units="mm"
     inkscape:current-layer="layer1"
     inkscape:document-rotation="0"
     showgrid="false"
     inkscape:snap-bbox="true"
     inkscape:bbox-paths="true"
     inkscape:bbox-nodes="true"
     inkscape:snap-bbox-edge-midpoints="true"
     inkscape:snap-bbox-midpoints="true"
     inkscape:object-paths="true"
     inkscape:snap-intersection-paths="true"
     inkscape:snap-smooth-nodes="true"
     inkscape:snap-midpoints="true"
     inkscape:snap-object-midpoints="true"
     inkscape:snap-center="true"
     inkscape:snap-page="true"
     inkscape:snap-text-baseline="true"
     inkscape:pagecheckerboard="true"
     showguides="false"
     inkscape:guide-bbox="true"
     fit-margin-top="0"
     fit-margin-left="0"
     fit-margin-right="0"
     fit-margin-bottom="0">
    <sodipodi:guide
       position="143.73076,33.274026"
       orientation="0,-1"
       id="guide13675" />
  </sodipodi:namedview>
  <metadata
     id="metadata5">
    <rdf:RDF>
      <cc:Work
         rdf:about="">
        <dc:format>image/svg+xml</dc:format>
        <dc:type
           rdf:resource="http://purl.org/dc/dcmitype/StillImage" />
      </cc:Work>
    </rdf:RDF>
  </metadata>
  <g
     inkscape:label="レイヤー 1"
     inkscape:groupmode="layer"
     id="layer1">
    <rect
       style="fill:#59716b;fill-opacity:1;stroke:#59726c;stroke-width:3;stroke-linecap:round;stroke-linejoin:round;stroke-miterlimit:4;stroke-dasharray:none;stroke-opacity:1;paint-order:markers stroke fill"
       id="rect4558-3"
       width="150"
       height="50"
       x="1.5"
       y="1.5"
       ry="25"
       rx="25"
       inkscape:export-xdpi="128"
       inkscape:export-ydpi="128" />
    <g
       aria-label="LISTEN"
       id="text5490"
       style="font-size:22.9306px;line-height:1.25;font-family:'Mplus 1p';-inkscape-font-specification:'Mplus 1p';letter-spacing:2.64583px;fill:#f0f3f3;stroke-width:0.070004"
       transform="translate(0,0.437319)">
      <path
         d="m 31.774832,11.700265 h 1.696864 v 14.583861 h 8.988795 v 1.467558 H 31.774832 Z"
         style="font-family:Montserrat;-inkscape-font-specification:Montserrat"
         id="path23138" />
      <path
         d="M 47.926756,11.700265 H 49.62362 V 27.751684 H 47.926756 Z"
         style="font-family:Montserrat;-inkscape-font-specification:Montserrat"
         id="path23140" />
      <path
         d="m 61.923191,27.889268 q -1.788587,0 -3.43959,-0.573265 -1.628072,-0.573265 -2.522366,-1.51342 l 0.664988,-1.307044 q 0.871363,0.871363 2.31599,1.421697 1.444628,0.527404 2.980978,0.527404 2.155477,0 3.233215,-0.77964 1.077738,-0.802571 1.077738,-2.063754 0,-0.963085 -0.596196,-1.53635 -0.573265,-0.573265 -1.421697,-0.871363 -0.848432,-0.321029 -2.361852,-0.687918 -1.811517,-0.458612 -2.889255,-0.871363 -1.077738,-0.435681 -1.857379,-1.307044 -0.756709,-0.871363 -0.756709,-2.361852 0,-1.215322 0.642056,-2.201337 0.642057,-1.008947 1.972032,-1.605142 1.329975,-0.596196 3.302006,-0.596196 1.375836,0 2.68288,0.38982 1.329975,0.36689 2.29306,1.031877 l -0.573265,1.352906 q -1.008946,-0.664988 -2.155476,-0.986016 -1.14653,-0.343959 -2.247199,-0.343959 -2.109615,0 -3.187353,0.825501 -1.054808,0.802571 -1.054808,2.086685 0,0.963085 0.573265,1.559281 0.596196,0.573265 1.467559,0.894293 0.894293,0.298098 2.384782,0.664987 1.765656,0.435682 2.843394,0.871363 1.100669,0.412751 1.857379,1.284114 0.75671,0.848432 0.75671,2.31599 0,1.215322 -0.664988,2.224268 -0.642057,0.986016 -1.994962,1.582212 -1.352905,0.573265 -3.324937,0.573265 z"
         style="font-family:Montserrat;-inkscape-font-specification:Montserrat"
         id="path23142" />
      <path
         d="M 77.134978,13.167823 H 71.494051 V 11.700265 H 84.47277 v 1.467558 h -5.640927 v 14.583861 h -1.696865 z"
         style="font-family:Montserrat;-inkscape-font-specification:Montserrat"
         id="path23144" />
      <path
         d="m 101.17504,26.284126 v 1.467558 H 89.824396 V 11.700265 h 11.006684 v 1.467558 h -9.309819 v 5.709719 h 8.300877 v 1.444628 h -8.300877 v 5.961956 z"
         style="font-family:Montserrat;-inkscape-font-specification:Montserrat"
         id="path23146" />
      <path
         d="m 121.22517,11.700265 v 16.051419 h -1.39877 l -10.31877,-13.02458 v 13.02458 h -1.69686 V 11.700265 h 1.39876 l 10.3417,13.02458 v -13.02458 z"
         style="font-family:Montserrat;-inkscape-font-specification:Montserrat"
         id="path23148" />
    </g>
    <g
       aria-label="受信する"
       id="text14045"
       style="font-size:10.5833px;line-height:1.25;font-family:'Rounded Mplus 1c Bold';-inkscape-font-specification:'Rounded Mplus 1c Bold, ';fill:#f0f3f3;stroke-width:0.264583"
       transform="translate(-0.089966,-8.05221)">
      <path
         d="m 55.553594,48.365029 q -0.243416,0 -0.423332,-0.179916 -0.179916,-0.179916 -0.179916,-0.423332 v -1.174746 q 0,-0.243416 0.179916,-0.423332 0.179916,-0.179916 0.423332,-0.179916 h 1.259413 q 0.09525,0 0.05292,-0.08467 -0.148166,-0.328082 -0.444498,-0.941913 -0.04233,-0.08467 -0.127,-0.08467 h -0.07408 q -0.253999,0 -0.444499,-0.169332 -0.179916,-0.169333 -0.211666,-0.412749 -0.03175,-0.232833 0.116417,-0.402166 0.158749,-0.179916 0.391582,-0.179916 4.222736,-0.03175 7.037894,-0.518581 0.253999,-0.05292 0.476248,0.08467 0.22225,0.137583 0.285749,0.380999 0.0635,0.232832 -0.07408,0.444498 -0.126999,0.211666 -0.370415,0.254 -0.328082,0.0635 -0.888997,0.137583 -0.02117,0 -0.02117,0.02117 0,0.01058 0.02117,0.01058 l 0.08467,0.02117 q 0.232833,0.05292 0.338666,0.264583 0.105833,0.211666 0.02117,0.433915 -0.05292,0.126999 -0.158749,0.370415 -0.105833,0.232833 -0.127,0.285749 -0.04233,0.08467 0.05292,0.08467 h 1.05833 q 0.243416,0 0.423332,0.179916 0.179916,0.179916 0.179916,0.423332 v 1.174746 q 0,0.243416 -0.179916,0.423332 -0.179916,0.179916 -0.423332,0.179916 h -0.179916 q -0.243416,0 -0.423332,-0.179916 -0.169333,-0.179916 -0.169333,-0.423332 V 47.1162 q 0,-0.09525 -0.09525,-0.09525 h -6.519312 q -0.09525,0 -0.09525,0.09525 v 0.624415 q 0,0.02117 0.02117,0.03175 0.03175,0.01058 0.04233,0 0.137583,-0.126999 0.349249,-0.126999 h 5.746731 q 0.232833,0 0.391582,0.158749 0.15875,0.148167 0.15875,0.380999 0,0.592665 -0.349249,0.984247 -0.698498,0.804331 -1.629828,1.418162 -0.02117,0.01058 -0.02117,0.04233 0,0.02117 0.02117,0.03175 1.322912,0.455082 2.762241,0.698498 0.232833,0.04233 0.349249,0.243416 0.116416,0.201083 0.03175,0.412749 l -0.01058,0.02117 q -0.09525,0.253999 -0.328082,0.380999 -0.232832,0.137583 -0.486832,0.09525 -1.947327,-0.328083 -3.682988,-1.100663 -0.07408,-0.03175 -0.148166,0 -1.513412,0.687914 -3.566572,1.079496 -0.253999,0.05292 -0.486832,-0.08467 -0.222249,-0.127 -0.317499,-0.370416 l -0.01058,-0.02117 q -0.08467,-0.211666 0.03175,-0.402166 0.116416,-0.201082 0.349249,-0.243416 1.365245,-0.211666 2.603491,-0.666748 0.02117,-0.01058 0.03175,-0.03175 0.01058,-0.03175 -0.01058,-0.05292 -0.571498,-0.349249 -1.068913,-0.751414 -0.179916,-0.148166 -0.169333,-0.380999 0.01058,-0.232833 0.190499,-0.380999 l 0.380999,-0.317499 q 0.02117,-0.01058 0.01058,-0.03175 -0.01058,-0.02117 -0.03175,-0.02117 h -0.74083 q -0.211666,0 -0.370416,-0.137583 -0.158749,-0.137583 -0.179916,-0.349249 0,-0.02117 -0.02117,-0.03175 -0.02117,-0.01058 -0.04233,0 -0.169333,0.148166 -0.391582,0.148166 z m 2.18016,0.370416 q -0.02117,0 -0.03175,0.02117 0,0.02117 0.02117,0.04233 0.730248,0.687914 1.799161,1.217079 0.08467,0.05292 0.169333,0 1.02658,-0.560915 1.682745,-1.217079 0.02117,-0.02117 0.01058,-0.04233 -0.01058,-0.02117 -0.03175,-0.02117 z m 2.434159,-4.011071 q -0.03175,0 -0.05292,0.03175 -0.01058,0.03175 0,0.0635 0.211666,0.433915 0.486832,1.079496 0.03175,0.08467 0.126999,0.08467 h 0.518582 q 0.105833,0 0.137583,-0.08467 0.232833,-0.476248 0.529165,-1.248829 0.02117,-0.07408 -0.05292,-0.07408 -0.920748,0.09525 -1.693328,0.148166 z m -2.391826,0.116416 q -0.09525,0 -0.05292,0.08467 0.359833,0.761997 0.444499,0.973663 0.03175,0.08467 0.127,0.08467 h 0.952497 q 0.09525,0 0.05292,-0.08467 Q 59.0355,45.274706 58.845,44.893707 q -0.03175,-0.08467 -0.137583,-0.08467 -0.613831,0.02117 -0.93133,0.03175 z"
         id="path23249" />
      <path
         d="m 65.448959,48.640195 -0.105833,-0.486832 q -0.126999,-0.550331 0.211666,-1.079496 0.899581,-1.407579 1.375829,-3.428989 0.05292,-0.243416 0.264583,-0.380999 0.211666,-0.148166 0.455081,-0.105833 l 0.116417,0.02117 q 0.243416,0.05292 0.380999,0.254 0.148166,0.190499 0.105832,0.433915 -0.243415,1.174746 -0.613831,2.074327 -0.03175,0.08467 -0.03175,0.179916 v 5.968981 q 0,0.243416 -0.179916,0.412748 -0.179916,0.179916 -0.423332,0.179916 h -0.158749 q -0.243416,0 -0.423332,-0.179916 -0.179916,-0.169332 -0.179916,-0.412748 V 48.3862 q 0,-0.02117 -0.02117,-0.02117 -0.01058,0 -0.02117,0.01058 -0.169332,0.253999 -0.253999,0.370415 -0.105833,0.148166 -0.285749,0.116416 -0.169333,-0.04233 -0.211666,-0.222249 z m 8.837055,-5.302233 q 0.22225,0 0.370416,0.158749 0.158749,0.148167 0.158749,0.370416 0,0.222249 -0.158749,0.380999 -0.148166,0.158749 -0.370416,0.158749 h -4.847151 q -0.222249,0 -0.380999,-0.158749 -0.148166,-0.15875 -0.148166,-0.380999 0,-0.222249 0.148166,-0.370416 0.15875,-0.158749 0.380999,-0.158749 z m 0.507999,1.513412 q 0.232832,0 0.402165,0.169333 0.169333,0.158749 0.169333,0.402165 0,0.243416 -0.169333,0.412749 -0.169333,0.158749 -0.402165,0.158749 h -5.990148 q -0.232833,0 -0.402165,-0.158749 -0.169333,-0.169333 -0.169333,-0.412749 0,-0.243416 0.169333,-0.402165 0.169332,-0.169333 0.402165,-0.169333 z m -5.545649,2.635241 q -0.211666,0 -0.370416,-0.148166 -0.148166,-0.148166 -0.148166,-0.359832 0,-0.211666 0.148166,-0.359832 0.15875,-0.15875 0.370416,-0.15875 h 4.984734 q 0.211666,0 0.359832,0.15875 0.158749,0.148166 0.158749,0.359832 0,0.211666 -0.158749,0.359832 -0.148166,0.148166 -0.359832,0.148166 z m 0,1.502829 q -0.211666,0 -0.370416,-0.148166 -0.148166,-0.15875 -0.148166,-0.370416 0,-0.211666 0.148166,-0.359832 0.15875,-0.148166 0.370416,-0.148166 h 4.984734 q 0.211666,0 0.359832,0.148166 0.158749,0.148166 0.158749,0.359832 0,0.211666 -0.158749,0.370416 -0.148166,0.148166 -0.359832,0.148166 z m -0.624415,3.100907 v -2.031994 q 0,-0.243416 0.179916,-0.423332 0.179916,-0.179916 0.423332,-0.179916 h 5.027067 q 0.243416,0 0.423332,0.179916 0.179916,0.179916 0.179916,0.423332 v 2.031994 q 0,0.243416 -0.179916,0.412748 -0.179916,0.179916 -0.423332,0.179916 h -0.476248 q -0.148166,0 -0.243416,-0.105833 -0.09525,-0.09525 -0.09525,-0.232832 0,-0.04233 -0.04233,-0.04233 h -3.344323 q -0.05292,0 -0.05292,0.04233 0,0.137583 -0.105833,0.232832 -0.09525,0.105833 -0.232833,0.105833 h -0.433915 q -0.243416,0 -0.423332,-0.179916 -0.179916,-0.169332 -0.179915,-0.412748 z m 1.375829,-1.513412 v 0.603248 q 0,0.08467 0.09525,0.08467 h 3.259656 q 0.08467,0 0.08467,-0.08467 v -0.603248 q 0,-0.08467 -0.08467,-0.08467 h -3.259656 q -0.09525,0 -0.09525,0.08467 z"
         id="path23251" />
      <path
         d="m 81.112223,48.576695 q 0.296332,-0.275166 0.296332,-0.687914 0,-0.412749 -0.296332,-0.677331 -0.296333,-0.275166 -0.761998,-0.275166 -0.465665,0 -0.761998,0.275166 -0.296332,0.264582 -0.296332,0.677331 0,0.412748 0.296332,0.687914 0.296333,0.264583 0.761998,0.264583 0.465665,0 0.761998,-0.264583 z m -4.286237,-3.227906 q -0.232832,0 -0.402165,-0.15875 -0.15875,-0.169332 -0.15875,-0.402165 0,-0.232833 0.15875,-0.402165 0.169333,-0.169333 0.402165,-0.169333 h 4.349736 q 0.09525,0 0.09525,-0.08467 v -0.476248 q 0,-0.243416 0.179916,-0.423332 0.179916,-0.179916 0.423332,-0.179916 h 0.137583 q 0.243416,0 0.423332,0.179916 0.179916,0.179916 0.179916,0.423332 v 0.465665 q 0,0.09525 0.08467,0.09525 h 2.169577 q 0.232832,0 0.391582,0.169333 0.169333,0.169332 0.169333,0.402165 0,0.232833 -0.169333,0.402165 -0.15875,0.15875 -0.391582,0.15875 h -2.169577 q -0.08467,0 -0.08467,0.09525 v 1.915577 q 0,0.105833 0.03175,0.179916 0.243416,0.634998 0.243416,1.333496 0,1.502828 -0.783164,2.317742 -0.783164,0.814914 -2.592909,1.100663 -0.243416,0.04233 -0.455082,-0.116416 -0.201082,-0.158749 -0.253999,-0.402165 v -0.04233 q -0.04233,-0.232833 0.09525,-0.423332 0.148166,-0.201083 0.391582,-0.243416 1.15358,-0.179916 1.629828,-0.507999 0.476249,-0.338665 0.613832,-0.96308 0,-0.01058 0,-0.02117 0.01058,-0.01058 0.01058,-0.02117 v -0.01058 h -0.03175 q -0.539748,0.433916 -1.375829,0.433916 -0.96308,0 -1.576912,-0.582082 -0.603248,-0.592664 -0.603248,-1.502828 0,-0.920747 0.613832,-1.502829 0.624414,-0.582081 1.608661,-0.582081 0.560915,0 1.05833,0.243416 0.01058,0 0.01058,0.01058 0,0 0.01058,0 0.01058,0 0.01058,-0.01058 v -0.603248 q 0,-0.09525 -0.09525,-0.09525 z"
         id="path23253" />
      <path
         d="m 91.71667,51.084937 q 0.148166,-0.359832 0.148166,-0.582081 0,-0.328083 -0.253999,-0.497415 -0.253999,-0.179916 -0.910164,-0.179916 -0.529165,0 -0.814914,0.179916 -0.275166,0.169332 -0.275166,0.423332 0,0.740831 1.799161,0.740831 h 0.190499 q 0.07408,0 0.116417,-0.08467 z m -3.513656,-2.412992 q -0.211666,0.09525 -0.423332,0.02117 -0.201082,-0.07408 -0.306915,-0.275166 -0.105833,-0.201083 -0.04233,-0.423332 0.0635,-0.232833 0.264583,-0.349249 l 4.466152,-2.698742 0.01058,-0.01058 -0.01058,-0.01058 h -3.630071 q -0.232833,0 -0.412749,-0.169333 -0.169333,-0.169333 -0.169333,-0.412749 0,-0.243416 0.169333,-0.412748 0.179916,-0.169333 0.412749,-0.169333 h 5.556232 q 0.243416,0 0.423332,0.179916 0.190499,0.169333 0.190499,0.412749 0.02117,0.582081 -0.518581,0.888997 l -2.952741,1.640411 v 0.01058 h 0.02117 q 0.698497,-0.137583 1.280579,-0.137583 1.513412,0 2.285992,0.624414 0.783165,0.624415 0.783165,1.777995 0,1.502828 -1.09008,2.328326 -1.09008,0.814914 -3.100907,0.814914 -1.576912,0 -2.360076,-0.486832 -0.783164,-0.476249 -0.783164,-1.386412 0,-0.698498 0.666748,-1.174747 0.666748,-0.486831 1.841494,-0.486831 1.206496,0 1.746244,0.402165 0.539749,0.402165 0.539749,1.18533 0,0.190499 -0.05292,0.476248 -0.01058,0.03175 0.01058,0.05292 0.03175,0.01058 0.05292,0 1.047747,-0.455082 1.047747,-1.598079 0,-0.730247 -0.518582,-1.100663 -0.507998,-0.370415 -1.629828,-0.370415 -1.894411,0 -3.767655,0.857247 z"
         id="path23255" />
    </g>
  </g>
</svg>
