<?xml version="1.0" encoding="UTF-8" standalone="no"?>
<svg
   width="153mm"
   height="53mm"
   viewBox="0 0 153 53"
   version="1.1"
   id="svg8"
   inkscape:version="1.1 (1:1.1+202105261517+ce6663b3b7)"
   sodipodi:docname="button-call-ja.svg"
   xmlns:inkscape="http://www.inkscape.org/namespaces/inkscape"
   xmlns:sodipodi="http://sodipodi.sourceforge.net/DTD/sodipodi-0.dtd"
   xmlns="http://www.w3.org/2000/svg"
   xmlns:svg="http://www.w3.org/2000/svg"
   xmlns:rdf="http://www.w3.org/1999/02/22-rdf-syntax-ns#"
   xmlns:cc="http://creativecommons.org/ns#"
   xmlns:dc="http://purl.org/dc/elements/1.1/">
  <defs
     id="defs2" />
  <sodipodi:namedview
     id="base"
     pagecolor="#ffffff"
     bordercolor="#666666"
     borderopacity="1.0"
     inkscape:pageopacity="0.0"
     inkscape:pageshadow="2"
     inkscape:zoom="0.83522378"
     inkscape:cx="266.99431"
     inkscape:cy="-2.3945678"
     inkscape:document-units="mm"
     inkscape:current-layer="layer1"
     inkscape:document-rotation="0"
     showgrid="false"
     inkscape:snap-bbox="true"
     inkscape:bbox-paths="true"
     inkscape:bbox-nodes="true"
     inkscape:snap-bbox-edge-midpoints="true"
     inkscape:snap-bbox-midpoints="true"
     inkscape:object-paths="true"
     inkscape:snap-intersection-paths="true"
     inkscape:snap-smooth-nodes="true"
     inkscape:snap-midpoints="true"
     inkscape:snap-object-midpoints="true"
     inkscape:snap-center="true"
     inkscape:snap-page="true"
     inkscape:snap-text-baseline="true"
     inkscape:pagecheckerboard="true"
     fit-margin-top="0"
     fit-margin-left="0"
     fit-margin-right="0"
     fit-margin-bottom="0" />
  <metadata
     id="metadata5">
    <rdf:RDF>
      <cc:Work
         rdf:about="">
        <dc:format>image/svg+xml</dc:format>
        <dc:type
           rdf:resource="http://purl.org/dc/dcmitype/StillImage" />
      </cc:Work>
    </rdf:RDF>
  </metadata>
  <g
     inkscape:label="レイヤー 1"
     inkscape:groupmode="layer"
     id="layer1">
    <g
       aria-label="送信する"
       id="text1040-2"
       style="font-size:10.5833px;line-height:1.25;font-family:'Rounded Mplus 1c';-inkscape-font-specification:'Rounded Mplus 1c';text-align:center;text-anchor:middle;fill:#59716b;fill-opacity:1;stroke-width:0.264582"
       transform="translate(-24.682154,-34.185082)">
      <path
         d="m 80.114032,69.841251 q 0.1905,-0.169333 0.433916,-0.15875 0.253999,0.01058 0.423332,0.1905 0.328082,0.338665 0.984246,1.05833 0.169333,0.190499 0.148167,0.444498 -0.01058,0.243416 -0.1905,0.412749 l -0.01058,0.02117 Q 81.722697,71.97908 81.468698,71.968497 81.225282,71.947327 81.055949,71.767414 80.569114,71.227663 80.050532,70.698498 79.8812,70.529165 79.8812,70.28575 q 0.01058,-0.254 0.190499,-0.412749 z m -0.05292,4.466152 q -0.232833,0 -0.412749,-0.169332 -0.169333,-0.179917 -0.169333,-0.412749 0,-0.232833 0.169333,-0.402165 0.179916,-0.179917 0.412749,-0.179917 h 1.322912 q 0.243416,0 0.412749,0.179917 0.179916,0.169332 0.179916,0.412748 v 2.656408 q 0,0.07408 0.05292,0.15875 0.243416,0.402165 0.624415,0.592665 0.380999,0.190499 1.195913,0.285749 0.825497,0.08467 2.402409,0.08467 h 2.233076 q 0.243416,0 0.402166,0.179916 0.158749,0.169333 0.148166,0.402166 -0.02117,0.243416 -0.201083,0.412748 -0.169333,0.169333 -0.412749,0.169333 h -2.211909 q -2.031994,0 -3.100907,-0.211666 -1.068913,-0.201083 -1.598078,-0.709081 -0.07408,-0.05292 -0.137583,0 -0.380999,0.338666 -0.93133,0.751414 -0.201083,0.137583 -0.433916,0.08467 -0.232832,-0.05292 -0.349249,-0.264583 l -0.04233,-0.07408 q -0.126999,-0.222249 -0.07408,-0.465665 0.0635,-0.243416 0.275166,-0.391582 0.539748,-0.391582 0.751414,-0.571498 0.07408,-0.07408 0.07408,-0.15875 V 74.39207 q 0,-0.08467 -0.09525,-0.08467 z m 6.730978,-0.285749 q -0.02117,0 -0.03175,0.02117 -0.01058,0.02117 0,0.04233 0.910164,0.952497 1.682745,2.000244 0.148166,0.201082 0.09525,0.433915 -0.04233,0.232833 -0.243416,0.380999 l -0.07408,0.0635 q -0.201083,0.137582 -0.444499,0.09525 -0.243416,-0.04233 -0.391582,-0.243416 -0.761997,-1.05833 -1.344079,-1.746244 -0.07408,-0.07408 -0.105833,0 -0.698498,1.195913 -2.063743,1.936744 -0.232833,0.116416 -0.486832,0.05292 -0.243416,-0.0635 -0.402166,-0.275166 l -0.07408,-0.09525 q -0.137583,-0.179916 -0.08467,-0.391582 0.05292,-0.22225 0.264582,-0.328083 1.418163,-0.698497 1.852078,-1.852077 0.02117,-0.09525 -0.05292,-0.09525 h -1.873244 q -0.232832,0 -0.402165,-0.158749 -0.15875,-0.169333 -0.15875,-0.402166 0,-0.232832 0.15875,-0.402165 0.169333,-0.169333 0.402165,-0.169333 h 2.042577 q 0.09525,0 0.09525,-0.08467 v -0.825498 q 0,-0.09525 -0.09525,-0.09525 h -1.830911 q -0.232832,0 -0.402165,-0.15875 -0.15875,-0.169333 -0.15875,-0.402165 0,-0.232833 0.15875,-0.391582 0.169333,-0.169333 0.402165,-0.169333 h 0.814914 q 0.02117,0 0.03175,-0.02117 0.02117,-0.03175 0.01058,-0.05292 0,-0.01058 -0.01058,-0.02117 -0.01058,-0.01058 -0.02117,-0.02117 -0.03175,-0.07408 -0.105833,-0.201083 -0.0635,-0.137583 -0.116417,-0.243416 -0.05292,-0.105833 -0.09525,-0.190499 -0.116417,-0.201083 -0.03175,-0.412749 0.08467,-0.211666 0.306916,-0.264582 l 0.03175,-0.01058 q 0.254,-0.07408 0.497416,0.03175 0.253999,0.105833 0.380998,0.338666 0.07408,0.137583 0.328083,0.634998 0.08467,0.179916 0.03175,0.349249 -0.02117,0.08467 0.05292,0.08467 h 0.89958 q 0.09525,0 0.09525,-0.09525 0,-0.08467 0.05292,-0.190499 0.09525,-0.179916 0.402165,-0.783164 0.116416,-0.232833 0.349249,-0.338666 0.232833,-0.116416 0.486832,-0.0635 l 0.05292,0.01058 q 0.232833,0.05292 0.338666,0.264582 0.105833,0.211666 0,0.423332 -0.232833,0.465665 -0.359832,0.698498 -0.02117,0.02117 -0.01058,0.05292 0.02117,0.02117 0.05292,0.02117 h 0.433915 q 0.232833,0 0.402165,0.169333 0.169333,0.158749 0.169333,0.391582 0,0.232832 -0.169333,0.402165 -0.169332,0.15875 -0.402165,0.15875 h -1.513412 q -0.08467,0 -0.08467,0.09525 v 0.825498 q 0,0.08467 0.08467,0.08467 h 1.693328 q 0.232833,0 0.391582,0.169333 0.169333,0.169333 0.169333,0.402165 0,0.232833 -0.169333,0.402166 -0.158749,0.158749 -0.391582,0.158749 z"
         style="font-weight:bold;font-family:'Rounded Mplus 1c Bold';-inkscape-font-specification:'Rounded Mplus 1c Bold,  Bold';fill:#59716b;fill-opacity:1"
         id="path2670" />
      <path
         d="m 90.041147,74.773069 -0.105833,-0.486832 q -0.126999,-0.550332 0.211666,-1.079497 0.899581,-1.407579 1.375829,-3.428989 0.05292,-0.243416 0.264583,-0.380999 0.211666,-0.148166 0.455082,-0.105833 l 0.116416,0.02117 q 0.243416,0.05292 0.380999,0.253999 0.148166,0.1905 0.105833,0.433915 -0.243416,1.174747 -0.613832,2.074327 -0.03175,0.08467 -0.03175,0.179916 v 5.968981 q 0,0.243416 -0.179916,0.412749 -0.179916,0.179916 -0.423332,0.179916 h -0.158749 q -0.243416,0 -0.423332,-0.179916 -0.179916,-0.169333 -0.179916,-0.412749 v -3.704155 q 0,-0.02117 -0.02117,-0.02117 -0.01058,0 -0.02117,0.01058 -0.169333,0.253999 -0.254,0.370416 -0.105833,0.148166 -0.285749,0.116416 -0.169333,-0.04233 -0.211666,-0.222249 z m 8.837055,-5.302234 q 0.22225,0 0.370416,0.15875 0.158749,0.148166 0.158749,0.370415 0,0.22225 -0.158749,0.380999 -0.148166,0.15875 -0.370416,0.15875 h -4.847151 q -0.222249,0 -0.380999,-0.15875 Q 93.501886,70.22225 93.501886,70 q 0,-0.222249 0.148166,-0.370415 0.15875,-0.15875 0.380999,-0.15875 z m 0.507999,1.513412 q 0.232832,0 0.402165,0.169333 0.169333,0.15875 0.169333,0.402165 0,0.243416 -0.169333,0.412749 -0.169333,0.15875 -0.402165,0.15875 h -5.990148 q -0.232832,0 -0.402165,-0.15875 -0.169333,-0.169333 -0.169333,-0.412749 0,-0.243415 0.169333,-0.402165 0.169333,-0.169333 0.402165,-0.169333 z m -5.545649,2.635242 q -0.211666,0 -0.370416,-0.148166 -0.148166,-0.148166 -0.148166,-0.359832 0,-0.211666 0.148166,-0.359833 0.15875,-0.158749 0.370416,-0.158749 h 4.984734 q 0.211666,0 0.359832,0.158749 0.15875,0.148167 0.15875,0.359833 0,0.211666 -0.15875,0.359832 -0.148166,0.148166 -0.359832,0.148166 z m 0,1.502828 q -0.211666,0 -0.370416,-0.148166 -0.148166,-0.158749 -0.148166,-0.370415 0,-0.211666 0.148166,-0.359832 0.15875,-0.148167 0.370416,-0.148167 h 4.984734 q 0.211666,0 0.359832,0.148167 0.15875,0.148166 0.15875,0.359832 0,0.211666 -0.15875,0.370415 -0.148166,0.148166 -0.359832,0.148166 z m -0.624415,3.100907 v -2.031993 q 0,-0.243416 0.179916,-0.423332 0.179916,-0.179916 0.423332,-0.179916 h 5.027068 q 0.243415,0 0.423332,0.179916 0.179916,0.179916 0.179916,0.423332 v 2.031993 q 0,0.243416 -0.179916,0.412749 -0.179917,0.179916 -0.423332,0.179916 h -0.476249 q -0.148166,0 -0.243416,-0.105833 -0.09525,-0.09525 -0.09525,-0.232833 0,-0.04233 -0.04233,-0.04233 h -3.344322 q -0.05292,0 -0.05292,0.04233 0,0.137583 -0.105833,0.232833 -0.09525,0.105833 -0.232832,0.105833 h -0.433916 q -0.243416,0 -0.423332,-0.179916 -0.179916,-0.169333 -0.179916,-0.412749 z m 1.375829,-1.513412 v 0.603248 q 0,0.08467 0.09525,0.08467 h 3.259656 q 0.08467,0 0.08467,-0.08467 v -0.603248 q 0,-0.08467 -0.08467,-0.08467 h -3.259656 q -0.09525,0 -0.09525,0.08467 z"
         style="font-weight:bold;font-family:'Rounded Mplus 1c Bold';-inkscape-font-specification:'Rounded Mplus 1c Bold,  Bold';fill:#59716b;fill-opacity:1"
         id="path2672" />
      <path
         d="m 105.70441,74.709569 q 0.29633,-0.275166 0.29633,-0.687915 0,-0.412748 -0.29633,-0.677331 -0.29633,-0.275166 -0.762,-0.275166 -0.46566,0 -0.76199,0.275166 -0.29634,0.264583 -0.29634,0.677331 0,0.412749 0.29634,0.687915 0.29633,0.264582 0.76199,0.264582 0.46567,0 0.762,-0.264582 z m -4.28624,-3.227907 q -0.23283,0 -0.40216,-0.158749 -0.15875,-0.169333 -0.15875,-0.402166 0,-0.232832 0.15875,-0.402165 0.16933,-0.169333 0.40216,-0.169333 h 4.34974 q 0.0952,0 0.0952,-0.08467 V 69.78833 q 0,-0.243415 0.17992,-0.423332 0.17991,-0.179916 0.42333,-0.179916 h 0.13758 q 0.24342,0 0.42333,0.179916 0.17992,0.179917 0.17992,0.423332 V 70.254 q 0,0.09525 0.0847,0.09525 h 2.16957 q 0.23283,0 0.39158,0.169333 0.16934,0.169333 0.16934,0.402165 0,0.232833 -0.16934,0.402166 -0.15875,0.158749 -0.39158,0.158749 h -2.16957 q -0.0847,0 -0.0847,0.09525 v 1.915577 q 0,0.105833 0.0318,0.179916 0.24342,0.634998 0.24342,1.333496 0,1.502829 -0.78317,2.317743 -0.78316,0.814914 -2.59291,1.100663 -0.24341,0.04233 -0.45508,-0.116416 -0.20108,-0.15875 -0.254,-0.402166 v -0.04233 q -0.0423,-0.232833 0.0953,-0.423332 0.14817,-0.201083 0.39158,-0.243416 1.15358,-0.179916 1.62983,-0.507998 0.47625,-0.338666 0.61383,-0.96308 0,-0.01058 0,-0.02117 0.0106,-0.01058 0.0106,-0.02117 v -0.01058 h -0.0318 q -0.53975,0.433915 -1.37583,0.433915 -0.96308,0 -1.57691,-0.582081 -0.60325,-0.592665 -0.60325,-1.502829 0,-0.920747 0.61383,-1.502828 0.62441,-0.582082 1.60866,-0.582082 0.56092,0 1.05833,0.243416 0.0106,0 0.0106,0.01058 0,0 0.0106,0 0.0106,0 0.0106,-0.01058 v -0.603248 q 0,-0.09525 -0.0952,-0.09525 z"
         style="font-weight:bold;font-family:'Rounded Mplus 1c Bold';-inkscape-font-specification:'Rounded Mplus 1c Bold,  Bold';fill:#59716b;fill-opacity:1"
         id="path2674" />
      <path
         d="m 116.30886,77.217811 q 0.14816,-0.359832 0.14816,-0.582082 0,-0.328082 -0.254,-0.497415 -0.25399,-0.179916 -0.91016,-0.179916 -0.52916,0 -0.81491,0.179916 -0.27517,0.169333 -0.27517,0.423332 0,0.740831 1.79916,0.740831 h 0.1905 q 0.0741,0 0.11642,-0.08467 z m -3.51366,-2.412993 q -0.21166,0.09525 -0.42333,0.02117 -0.20108,-0.07408 -0.30692,-0.275166 -0.10583,-0.201082 -0.0423,-0.423332 0.0635,-0.232832 0.26458,-0.349249 l 4.46616,-2.698741 0.0106,-0.01058 -0.0106,-0.01058 h -3.63008 q -0.23283,0 -0.41274,-0.169332 -0.16934,-0.169333 -0.16934,-0.412749 0,-0.243416 0.16934,-0.412749 0.17991,-0.169333 0.41274,-0.169333 h 5.55624 q 0.24341,0 0.42333,0.179917 0.1905,0.169332 0.1905,0.412748 0.0212,0.582082 -0.51858,0.888997 l -2.95274,1.640412 v 0.01058 h 0.0212 q 0.6985,-0.137583 1.28058,-0.137583 1.51341,0 2.28599,0.624415 0.78317,0.624415 0.78317,1.777994 0,1.502829 -1.09008,2.328326 -1.09008,0.814914 -3.10091,0.814914 -1.57691,0 -2.36007,-0.486832 -0.78317,-0.476248 -0.78317,-1.386412 0,-0.698498 0.66675,-1.174746 0.66675,-0.486832 1.84149,-0.486832 1.2065,0 1.74625,0.402166 0.53975,0.402165 0.53975,1.185329 0,0.190499 -0.0529,0.476249 -0.0106,0.03175 0.0106,0.05292 0.0317,0.01058 0.0529,0 1.04775,-0.455082 1.04775,-1.598078 0,-0.730248 -0.51858,-1.100663 -0.508,-0.370416 -1.62983,-0.370416 -1.89441,0 -3.76766,0.857247 z"
         style="font-weight:bold;font-family:'Rounded Mplus 1c Bold';-inkscape-font-specification:'Rounded Mplus 1c Bold,  Bold';fill:#59716b;fill-opacity:1"
         id="path2676" />
    </g>
    <g
       aria-label="CALL"
       id="text4562"
       style="font-size:22.9306px;line-height:1.25;font-family:'Rounded Mplus 1c';-inkscape-font-specification:'Rounded Mplus 1c';letter-spacing:6.61458px;fill:#59716b;stroke-width:0.264582"
       transform="translate(1.5,0.163277)">
      <path
         d="m 44.406241,28.16331 q -2.384782,0 -4.310952,-1.054808 -1.90324,-1.054807 -3.003909,-2.912186 -1.077738,-1.880309 -1.077738,-4.196299 0,-2.315991 1.077738,-4.173369 1.100669,-1.88031 3.026839,-2.935117 1.926171,-1.054808 4.310953,-1.054808 1.788587,0 3.302006,0.596196 1.51342,0.596195 2.568227,1.742725 l -1.077738,1.077739 q -1.880309,-1.90324 -4.746634,-1.90324 -1.90324,0 -3.46252,0.871363 -1.559281,0.871362 -2.453575,2.384782 -0.871362,1.513419 -0.871362,3.393729 0,1.880309 0.871362,3.393728 0.894294,1.51342 2.453575,2.384783 1.55928,0.871362 3.46252,0.871362 2.889256,0 4.746634,-1.92617 l 1.077738,1.077738 q -1.054807,1.14653 -2.591157,1.765656 -1.51342,0.596196 -3.302007,0.596196 z"
         style="font-family:Montserrat;-inkscape-font-specification:Montserrat;text-align:center;text-anchor:middle"
         id="path825" />
      <path
         d="m 70.190763,23.737704 h -8.942934 l -1.92617,4.288022 h -1.765657 l 7.337792,-16.051419 h 1.673934 l 7.337792,16.051419 h -1.788587 z m -0.619127,-1.375836 -3.85234,-8.621905 -3.852341,8.621905 z"
         style="font-family:Montserrat;-inkscape-font-specification:Montserrat;text-align:center;text-anchor:middle"
         id="path827" />
      <path
         d="m 83.180029,11.974307 h 1.696864 v 14.583861 h 8.988795 v 1.467558 H 83.180029 Z"
         style="font-family:Montserrat;-inkscape-font-specification:Montserrat;text-align:center;text-anchor:middle"
         id="path829" />
      <path
         d="m 103.3007,11.974307 h 1.69687 v 14.583861 h 8.98879 v 1.467558 H 103.3007 Z"
         style="font-family:Montserrat;-inkscape-font-specification:Montserrat;text-align:center;text-anchor:middle"
         id="path831" />
    </g>
    <rect
       style="fill:none;fill-opacity:1;stroke:#59726c;stroke-width:3;stroke-linecap:round;stroke-linejoin:round;stroke-miterlimit:4;stroke-dasharray:none;stroke-opacity:1;paint-order:markers stroke fill"
       id="rect4558-3"
       width="150"
       height="50"
       x="1.5"
       y="1.5"
       ry="25"
       rx="25"
       inkscape:export-xdpi="128"
       inkscape:export-ydpi="128" />
  </g>
</svg>
