<?xml version="1.0" encoding="UTF-8" standalone="no"?>
<svg
   width="153mm"
   height="43mm"
   viewBox="0 0 153 43"
   version="1.1"
   id="svg8"
   inkscape:version="1.1 (1:1.1+202105261517+ce6663b3b7)"
   sodipodi:docname="button-call.svg"
   xmlns:inkscape="http://www.inkscape.org/namespaces/inkscape"
   xmlns:sodipodi="http://sodipodi.sourceforge.net/DTD/sodipodi-0.dtd"
   xmlns="http://www.w3.org/2000/svg"
   xmlns:svg="http://www.w3.org/2000/svg"
   xmlns:rdf="http://www.w3.org/1999/02/22-rdf-syntax-ns#"
   xmlns:cc="http://creativecommons.org/ns#"
   xmlns:dc="http://purl.org/dc/elements/1.1/">
  <defs
     id="defs2" />
  <sodipodi:namedview
     id="base"
     pagecolor="#ffffff"
     bordercolor="#666666"
     borderopacity="1.0"
     inkscape:pageopacity="0.0"
     inkscape:pageshadow="2"
     inkscape:zoom="0.9939163"
     inkscape:cx="282.71998"
     inkscape:cy="263.60369"
     inkscape:document-units="mm"
     inkscape:current-layer="layer1"
     inkscape:document-rotation="0"
     showgrid="false"
     inkscape:snap-bbox="true"
     inkscape:bbox-paths="true"
     inkscape:bbox-nodes="true"
     inkscape:snap-bbox-edge-midpoints="true"
     inkscape:snap-bbox-midpoints="true"
     inkscape:object-paths="true"
     inkscape:snap-intersection-paths="true"
     inkscape:snap-smooth-nodes="true"
     inkscape:snap-midpoints="true"
     inkscape:snap-object-midpoints="true"
     inkscape:snap-center="true"
     inkscape:snap-page="true"
     inkscape:snap-text-baseline="true"
     inkscape:pagecheckerboard="true"
     lock-margins="true"
     fit-margin-top="0"
     fit-margin-left="0"
     fit-margin-right="0"
     fit-margin-bottom="0" />
  <metadata
     id="metadata5">
    <rdf:RDF>
      <cc:Work
         rdf:about="">
        <dc:format>image/svg+xml</dc:format>
        <dc:type
           rdf:resource="http://purl.org/dc/dcmitype/StillImage" />
      </cc:Work>
    </rdf:RDF>
  </metadata>
  <g
     inkscape:label="レイヤー 1"
     inkscape:groupmode="layer"
     id="layer1"
     transform="translate(1.5,1.5)">
    <g
       aria-label="CALL"
       id="text4562"
       style="font-size:22.9306px;line-height:1.25;font-family:'Rounded Mplus 1c';-inkscape-font-specification:'Rounded Mplus 1c';letter-spacing:6.61458px;fill:#59716b;stroke-width:0.264582">
      <path
         d="m 44.406241,28.16331 q -2.384782,0 -4.310952,-1.054808 -1.90324,-1.054807 -3.003909,-2.912186 -1.077738,-1.880309 -1.077738,-4.196299 0,-2.315991 1.077738,-4.173369 1.100669,-1.88031 3.026839,-2.935117 1.926171,-1.054808 4.310953,-1.054808 1.788587,0 3.302006,0.596196 1.51342,0.596195 2.568227,1.742725 l -1.077738,1.077739 q -1.880309,-1.90324 -4.746634,-1.90324 -1.90324,0 -3.46252,0.871363 -1.559281,0.871362 -2.453575,2.384782 -0.871362,1.513419 -0.871362,3.393729 0,1.880309 0.871362,3.393728 0.894294,1.51342 2.453575,2.384783 1.55928,0.871362 3.46252,0.871362 2.889256,0 4.746634,-1.92617 l 1.077738,1.077738 q -1.054807,1.14653 -2.591157,1.765656 -1.51342,0.596196 -3.302007,0.596196 z"
         style="font-family:Montserrat;-inkscape-font-specification:Montserrat;text-align:center;text-anchor:middle"
         id="path825" />
      <path
         d="m 70.190763,23.737704 h -8.942934 l -1.92617,4.288022 h -1.765657 l 7.337792,-16.051419 h 1.673934 l 7.337792,16.051419 h -1.788587 z m -0.619127,-1.375836 -3.85234,-8.621905 -3.852341,8.621905 z"
         style="font-family:Montserrat;-inkscape-font-specification:Montserrat;text-align:center;text-anchor:middle"
         id="path827" />
      <path
         d="m 83.180029,11.974307 h 1.696864 v 14.583861 h 8.988795 v 1.467558 H 83.180029 Z"
         style="font-family:Montserrat;-inkscape-font-specification:Montserrat;text-align:center;text-anchor:middle"
         id="path829" />
      <path
         d="m 103.3007,11.974307 h 1.69687 v 14.583861 h 8.98879 v 1.467558 H 103.3007 Z"
         style="font-family:Montserrat;-inkscape-font-specification:Montserrat;text-align:center;text-anchor:middle"
         id="path831" />
    </g>
    <rect
       style="fill:none;fill-opacity:1;stroke:#59726c;stroke-width:3;stroke-linecap:round;stroke-linejoin:round;stroke-miterlimit:4;stroke-dasharray:none;stroke-opacity:1;paint-order:markers stroke fill"
       id="rect4558-3"
       width="150"
       height="40"
       x="2.5757174e-14"
       y="-1.7763568e-15"
       ry="20"
       rx="20"
       inkscape:export-xdpi="128"
       inkscape:export-ydpi="128" />
  </g>
</svg>
