<svg width="325" height="75" viewBox="0 0 325 75" fill="none" xmlns="http://www.w3.org/2000/svg">
<rect x="3.5" y="3.5" width="318" height="68" rx="34" fill="#FEFEFE" stroke="#829993" stroke-width="7"/>
<path d="M167.284 22C167.284 22 155.263 34.0208 152.081 37.2028C148.899 40.3848 149.253 44.981 152.081 47.8094M152.081 47.8094C154.91 50.6378 159.86 50.6378 162.688 47.8094C165.517 44.981 177.891 32.6066 177.891 32.6066M152.081 47.8094L144.303 55.5876" stroke="#829993" stroke-width="5" stroke-linecap="round" stroke-linejoin="round"/>
<path d="M129.142 50.2842C121.332 42.4737 121.332 29.8104 129.142 22" stroke="#829993" stroke-width="5"/>
<path d="M136.213 43.2132C132.308 39.3079 132.308 32.9763 136.213 29.071" stroke="#829993" stroke-width="5"/>
<path d="M197.142 50.2842C204.953 42.4737 204.953 29.8104 197.142 22" stroke="#829993" stroke-width="5"/>
<path d="M190.071 43.2132C193.976 39.3079 193.976 32.9763 190.071 29.071" stroke="#829993" stroke-width="5"/>
</svg>
