<svg width="201" height="27" viewBox="0 0 201 27" fill="none" xmlns="http://www.w3.org/2000/svg">
<path d="M2.06001 15.9099C1.60001 15.9099 1.20001 15.7399 0.860006 15.3999C0.520006 15.0599 0.350006 14.6599 0.350006 14.1999V13.9899C0.350006 13.5299 0.520006 13.1399 0.860006 12.8199C1.20001 12.4799 1.60001 12.3099 2.06001 12.3099H11.99C12.17 12.3099 12.26 12.2199 12.26 12.0399V7.68992C12.26 7.52992 12.18 7.44992 12.02 7.44992C10.38 7.56992 8.13001 7.64992 5.27001 7.68992C4.79001 7.68992 4.38001 7.52992 4.04001 7.20992C3.72001 6.86992 3.56001 6.46992 3.56001 6.00992V5.79992C3.56001 5.33992 3.72001 4.93992 4.04001 4.59992C4.38001 4.25992 4.78001 4.08992 5.24001 4.08992C11.66 4.00992 16.88 3.35992 20.9 2.13992C21.36 1.99992 21.8 2.03992 22.22 2.25992C22.64 2.45992 22.92 2.77992 23.06 3.21992L23.15 3.48992C23.31 3.94992 23.28 4.38992 23.06 4.80992C22.84 5.22992 22.51 5.50992 22.07 5.64992C20.33 6.18992 18.5 6.61992 16.58 6.93992C16.42 6.97992 16.34 7.07992 16.34 7.23992V12.0399C16.34 12.2199 16.43 12.3099 16.61 12.3099H24.44C24.9 12.3099 25.3 12.4799 25.64 12.8199C25.98 13.1399 26.15 13.5299 26.15 13.9899V14.1999C26.15 14.6599 25.98 15.0599 25.64 15.3999C25.3 15.7399 24.9 15.9099 24.44 15.9099H16.43C16.29 15.9099 16.2 15.9999 16.16 16.1799C15.8 19.0799 14.92 21.3299 13.52 22.9299C12.12 24.5099 10.06 25.6499 7.34001 26.3499C6.86001 26.4699 6.41001 26.4099 5.99001 26.1699C5.59001 25.9299 5.31001 25.5699 5.15001 25.0899L5.06001 24.8199C4.92001 24.3799 4.96001 23.9699 5.18001 23.5899C5.40001 23.1899 5.73001 22.9299 6.17001 22.8099C8.01001 22.2899 9.38001 21.5299 10.28 20.5299C11.18 19.5299 11.76 18.0799 12.02 16.1799C12.06 15.9999 11.99 15.9099 11.81 15.9099H2.06001Z" fill="#829993"/>
<path d="M39.17 25.1799C38.73 25.1799 38.35 25.0199 38.03 24.6999C37.71 24.3799 37.55 23.9999 37.55 23.5599C37.55 23.0999 37.71 22.7099 38.03 22.3899C38.35 22.0699 38.73 21.9099 39.17 21.9099H49.1C49.28 21.9099 49.37 21.8299 49.37 21.6699L50.03 11.5299C50.03 11.3699 49.95 11.2899 49.79 11.2899H41.63C41.19 11.2899 40.81 11.1299 40.49 10.8099C40.17 10.4899 40.01 10.0999 40.01 9.63992C40.01 9.19992 40.17 8.81992 40.49 8.49992C40.81 8.17992 41.19 8.01992 41.63 8.01992H52.46C52.92 8.01992 53.31 8.18992 53.63 8.52992C53.95 8.86992 54.1 9.26992 54.08 9.72992L53.36 21.6699C53.36 21.8299 53.44 21.9099 53.6 21.9099H56.33C56.77 21.9099 57.15 22.0699 57.47 22.3899C57.79 22.7099 57.95 23.0999 57.95 23.5599C57.95 23.9999 57.79 24.3799 57.47 24.6999C57.15 25.0199 56.77 25.1799 56.33 25.1799H39.17Z" fill="#829993"/>
<path d="M71.54 16.2099C71.08 16.2099 70.68 16.0399 70.34 15.6999C70.02 15.3599 69.86 14.9599 69.86 14.4999V13.8999C69.86 13.4399 70.02 13.0399 70.34 12.6999C70.68 12.3599 71.08 12.1899 71.54 12.1899H92.96C93.42 12.1899 93.81 12.3599 94.13 12.6999C94.47 13.0399 94.64 13.4399 94.64 13.8999V14.4999C94.64 14.9599 94.47 15.3599 94.13 15.6999C93.81 16.0399 93.42 16.2099 92.96 16.2099H71.54Z" fill="#829993"/>
<path d="M108.44 3.60992H125.06C125.52 3.60992 125.91 3.77992 126.23 4.11992C126.57 4.43992 126.74 4.82992 126.74 5.28992V5.79992C126.74 6.25992 126.57 6.65992 126.23 6.99992C125.91 7.33992 125.52 7.50992 125.06 7.50992H108.44C107.98 7.50992 107.58 7.33992 107.24 6.99992C106.92 6.65992 106.76 6.25992 106.76 5.79992V5.28992C106.76 4.82992 106.92 4.43992 107.24 4.11992C107.58 3.77992 107.98 3.60992 108.44 3.60992ZM106.34 24.7899C105.88 24.7899 105.48 24.6299 105.14 24.3099C104.82 23.9699 104.66 23.5699 104.66 23.1099V22.5999C104.66 22.1399 104.82 21.7399 105.14 21.3999C105.48 21.0599 105.88 20.8899 106.34 20.8899H127.16C127.62 20.8899 128.01 21.0599 128.33 21.3999C128.67 21.7399 128.84 22.1399 128.84 22.5999V23.1099C128.84 23.5699 128.67 23.9699 128.33 24.3099C128.01 24.6299 127.62 24.7899 127.16 24.7899H106.34Z" fill="#829993"/>
<path d="M141.83 6.81992C141.41 6.61992 141.13 6.29992 140.99 5.85992C140.85 5.41992 140.89 4.99992 141.11 4.59992L141.41 3.99992C141.63 3.57992 141.96 3.29992 142.4 3.15992C142.86 3.01992 143.31 3.04992 143.75 3.24992C145.73 4.20992 147.82 5.28992 150.02 6.48992C150.42 6.70992 150.68 7.04992 150.8 7.50992C150.94 7.96992 150.9 8.39992 150.68 8.79992L150.35 9.39992C150.13 9.79992 149.79 10.0699 149.33 10.2099C148.87 10.3299 148.44 10.2799 148.04 10.0599C145.7 8.77992 143.63 7.69992 141.83 6.81992ZM162.71 5.85992C163.17 5.95992 163.53 6.20992 163.79 6.60992C164.05 7.00992 164.13 7.43992 164.03 7.89992C162.85 13.0399 160.54 17.0599 157.1 19.9599C153.68 22.8599 149.06 24.6799 143.24 25.4199C142.76 25.4799 142.33 25.3599 141.95 25.0599C141.59 24.7799 141.37 24.3999 141.29 23.9199L141.23 23.3799C141.15 22.9199 141.25 22.5099 141.53 22.1499C141.81 21.7699 142.18 21.5499 142.64 21.4899C147.56 20.8099 151.43 19.3099 154.25 16.9899C157.07 14.6699 159.04 11.3599 160.16 7.05992C160.28 6.59992 160.54 6.23992 160.94 5.97992C161.34 5.71992 161.77 5.63992 162.23 5.73992L162.71 5.85992Z" fill="#829993"/>
<path d="M199.04 1.14992C199.14 1.34992 199.28 1.63992 199.46 2.01992C199.66 2.39992 199.8 2.66992 199.88 2.82992C200.08 3.22992 200.11 3.62992 199.97 4.02992C199.83 4.42992 199.56 4.72992 199.16 4.92992C198.76 5.12992 198.35 5.15992 197.93 5.01992C197.53 4.87992 197.22 4.60992 197 4.20992C196.82 3.84992 196.53 3.30992 196.13 2.58992C195.93 2.18992 195.89 1.78992 196.01 1.38992C196.15 0.969918 196.42 0.659919 196.82 0.459919C197.22 0.259918 197.64 0.229918 198.08 0.369918C198.52 0.509919 198.84 0.769919 199.04 1.14992ZM173.87 15.7599L173.6 15.5499C173.26 15.2499 173.08 14.8699 173.06 14.4099C173.04 13.9299 173.18 13.5199 173.48 13.1799C175.98 10.3199 177.62 7.04992 178.4 3.36992C178.5 2.88992 178.73 2.49992 179.09 2.19992C179.47 1.89992 179.9 1.75992 180.38 1.77992L180.89 1.80992C181.35 1.84992 181.73 2.04992 182.03 2.40992C182.33 2.74992 182.44 3.14992 182.36 3.60992C182.34 3.74992 182.3 3.93992 182.24 4.17992C182.2 4.39992 182.17 4.55992 182.15 4.65992C182.11 4.81992 182.18 4.89992 182.36 4.89992H192.44C192.48 4.89992 192.51 4.87992 192.53 4.83992C192.55 4.77992 192.55 4.72992 192.53 4.68992L192.47 4.56992C192.37 4.38992 192.23 4.12992 192.05 3.78992C191.87 3.42992 191.73 3.15992 191.63 2.97992C191.43 2.59992 191.39 2.20992 191.51 1.80992C191.65 1.38992 191.91 1.07992 192.29 0.879919C192.69 0.679919 193.09 0.649919 193.49 0.789918C193.91 0.929919 194.23 1.19992 194.45 1.59992C194.55 1.77992 194.69 2.04992 194.87 2.40992C195.05 2.74992 195.19 3.00992 195.29 3.18992C195.47 3.54992 195.5 3.92992 195.38 4.32992C195.28 4.70992 195.06 4.99992 194.72 5.19992C194.56 5.27992 194.54 5.37992 194.66 5.49992C194.92 5.81992 195.05 6.18992 195.05 6.60992C194.87 12.8499 193.31 17.5399 190.37 20.6799C187.45 23.7999 182.88 25.7199 176.66 26.4399C176.18 26.4999 175.75 26.3799 175.37 26.0799C175.01 25.7799 174.79 25.3899 174.71 24.9099L174.65 24.6699C174.57 24.2299 174.67 23.8299 174.95 23.4699C175.23 23.0899 175.6 22.8699 176.06 22.8099C180.96 22.1499 184.53 20.7599 186.77 18.6399C189.03 16.5199 190.35 13.2199 190.73 8.73992C190.73 8.57992 190.66 8.49992 190.52 8.49992H181.22C181.04 8.49992 180.92 8.57992 180.86 8.73992C179.82 11.2199 178.31 13.5299 176.33 15.6699C176.01 16.0099 175.61 16.1899 175.13 16.2099C174.65 16.2299 174.23 16.0799 173.87 15.7599Z" fill="#829993"/>
</svg>
