<?xml version="1.0" encoding="UTF-8" standalone="no"?>
<svg
   width="77.501366mm"
   height="7.9374747mm"
   viewBox="0 0 77.501366 7.9374747"
   version="1.1"
   id="svg8"
   inkscape:version="1.1 (1:1.1+202105261517+ce6663b3b7)"
   sodipodi:docname="text-version.svg"
   xmlns:inkscape="http://www.inkscape.org/namespaces/inkscape"
   xmlns:sodipodi="http://sodipodi.sourceforge.net/DTD/sodipodi-0.dtd"
   xmlns="http://www.w3.org/2000/svg"
   xmlns:svg="http://www.w3.org/2000/svg"
   xmlns:rdf="http://www.w3.org/1999/02/22-rdf-syntax-ns#"
   xmlns:cc="http://creativecommons.org/ns#"
   xmlns:dc="http://purl.org/dc/elements/1.1/">
  <defs
     id="defs2" />
  <sodipodi:namedview
     id="base"
     pagecolor="#ffffff"
     bordercolor="#666666"
     borderopacity="1.0"
     inkscape:pageopacity="0.0"
     inkscape:pageshadow="2"
     inkscape:zoom="0.9939163"
     inkscape:cx="193.17522"
     inkscape:cy="263.60369"
     inkscape:document-units="mm"
     inkscape:current-layer="layer1"
     inkscape:document-rotation="0"
     showgrid="false"
     inkscape:snap-bbox="true"
     inkscape:bbox-paths="true"
     inkscape:bbox-nodes="true"
     inkscape:snap-bbox-edge-midpoints="true"
     inkscape:snap-bbox-midpoints="true"
     inkscape:object-paths="true"
     inkscape:snap-intersection-paths="true"
     inkscape:snap-smooth-nodes="true"
     inkscape:snap-midpoints="true"
     inkscape:snap-object-midpoints="true"
     inkscape:snap-center="true"
     inkscape:snap-page="true"
     inkscape:snap-text-baseline="true"
     inkscape:pagecheckerboard="true"
     fit-margin-top="0"
     fit-margin-left="0"
     fit-margin-right="0"
     fit-margin-bottom="0"
     lock-margins="true" />
  <metadata
     id="metadata5">
    <rdf:RDF>
      <cc:Work
         rdf:about="">
        <dc:format>image/svg+xml</dc:format>
        <dc:type
           rdf:resource="http://purl.org/dc/dcmitype/StillImage" />
      </cc:Work>
    </rdf:RDF>
  </metadata>
  <g
     inkscape:label="レイヤー 1"
     inkscape:groupmode="layer"
     id="layer1"
     transform="translate(1.5,1.5000001)">
    <g
       aria-label="TELPort v1.2.3"
       id="text1040"
       style="font-size:10.5833px;line-height:1.25;font-family:'Rounded Mplus 1c';-inkscape-font-specification:'Rounded Mplus 1c';fill:#b8c5c5;stroke-width:0.264582">
      <path
         d="m -0.8967519,-0.1665043 q -0.2434159,0 -0.423332,-0.1693328 Q -1.5,-0.51575319 -1.5,-0.75916908 v -0.0317499 q 0,-0.24341592 0.1799161,-0.42333202 0.1799161,-0.1799161 0.423332,-0.1799161 h 4.5084856 q 0.2434159,0 0.423332,0.1799161 0.1799161,0.1799161 0.1799161,0.42333202 v 0.0317499 q 0,0.24341589 -0.1799161,0.42333198 -0.1799161,0.1693328 -0.423332,0.1693328 H 2.1935716 q -0.084666,0 -0.084666,0.09524969 V 5.7283936 q 0,0.2434159 -0.1799161,0.423332 Q 1.749073,6.3316417 1.5056571,6.3316417 H 1.2093247 q -0.24341586,0 -0.42333195,-0.1799161 -0.1799161,-0.1799161 -0.1799161,-0.423332 v -5.79964821 q 0,-0.09524969 -0.0846664,-0.09524969 z"
         style="font-weight:bold;font-family:'Rounded Mplus 1c Bold';-inkscape-font-specification:'Rounded Mplus 1c Bold, Bold'"
         id="path1046" />
      <path
         d="m 6.2257961,6.3316417 q -0.2434159,0 -0.423332,-0.1799161 Q 5.622548,5.9718095 5.622548,5.7283936 v -6.51931258 q 0,-0.24341592 0.1799161,-0.42333202 0.1799161,-0.1799161 0.423332,-0.1799161 h 3.5983218 q 0.2434161,0 0.4233321,0.1799161 0.179916,0.1799161 0.179916,0.42333202 0,0.24341589 -0.179916,0.42333198 -0.179916,0.1693328 -0.4233321,0.1693328 H 7.1994596 q -0.09525,0 -0.09525,0.0952497 V 1.6009067 q 0,0.09525 0.09525,0.09525 h 2.4447422 q 0.2434159,0 0.4021652,0.1693328 0.169333,0.1693328 0.169333,0.4021654 0,0.2328326 -0.169333,0.4021654 Q 9.8876177,2.8285695 9.6442018,2.8285695 H 7.1994596 q -0.09525,0 -0.09525,0.09525 v 2.1166599 q 0,0.09525 0.09525,0.09525 h 2.6246583 q 0.2434161,0 0.4233321,0.1799161 0.179916,0.1693328 0.179916,0.4127487 0,0.2434159 -0.179916,0.423332 -0.179916,0.1799161 -0.4233321,0.1799161 z"
         style="font-weight:bold;font-family:'Rounded Mplus 1c Bold';-inkscape-font-specification:'Rounded Mplus 1c Bold, Bold'"
         id="path1048" />
      <path
         d="m 12.586351,6.3316417 q -0.243416,0 -0.423332,-0.1799161 -0.169332,-0.1799161 -0.169332,-0.423332 v -6.51931258 q 0,-0.24341592 0.169332,-0.42333202 0.179916,-0.1799161 0.423332,-0.1799161 h 0.338666 q 0.243416,0 0.423332,0.1799161 0.179916,0.1799161 0.179916,0.42333202 V 5.0087292 q 0,0.09525 0.08467,0.09525 h 2.719908 q 0.243416,0 0.412749,0.1799161 0.179916,0.1693328 0.179916,0.4127487 v 0.03175 q 0,0.2434159 -0.179916,0.423332 -0.169333,0.1799161 -0.412749,0.1799161 z"
         style="font-weight:bold;font-family:'Rounded Mplus 1c Bold';-inkscape-font-specification:'Rounded Mplus 1c Bold, Bold'"
         id="path1050" />
      <path
         d="m 19.793567,-0.1876709 v 2.5505752 q 0,0.074083 0.08467,0.09525 0.402166,0.052917 0.783165,0.052917 0.857247,0 1.301745,-0.3704155 0.455082,-0.3809988 0.455082,-1.0794965 0,-1.4075789 -1.756827,-1.4075789 -0.380999,0 -0.783165,0.0529165 -0.08467,0.0211666 -0.08467,0.105833 z m -0.867831,6.5193126 q -0.243416,0 -0.423332,-0.1799161 -0.169332,-0.1799161 -0.169332,-0.423332 v -6.46639608 q 0,-0.25399919 0.169332,-0.45508192 0.169333,-0.2010827 0.423332,-0.2222493 0.899581,-0.084666 1.735662,-0.084666 1.587494,0 2.381242,0.63499802 0.793747,0.62441468 0.793747,1.82032754 0,1.32291244 -0.77258,2.00024364 -0.761998,0.6773312 -2.264827,0.6773312 -0.349248,0 -0.920747,-0.042333 -0.08467,0 -0.08467,0.084666 v 2.0531601 q 0,0.2434159 -0.179916,0.423332 -0.179916,0.1799161 -0.423332,0.1799161 z"
         style="font-weight:bold;font-family:'Rounded Mplus 1c Bold';-inkscape-font-specification:'Rounded Mplus 1c Bold, Bold'"
         id="path1052" />
      <path
         d="m 27.900352,2.1935715 q -0.306916,-0.4444986 -0.93133,-0.4444986 -0.624415,0 -0.941914,0.4444986 -0.306916,0.4339153 -0.306916,1.3864123 0,0.9524969 0.306916,1.3969955 0.317499,0.4339153 0.941914,0.4339153 0.624414,0 0.93133,-0.4339153 0.317499,-0.4444986 0.317499,-1.3969955 0,-0.952497 -0.317499,-1.3864123 z m 1.037163,3.5030722 q -0.698497,0.740831 -1.968493,0.740831 -1.269996,0 -1.979077,-0.740831 -0.698498,-0.7514143 -0.698498,-2.1166599 0,-1.3652457 0.698498,-2.1060767 0.709081,-0.75141423 1.979077,-0.75141423 1.269996,0 1.968493,0.75141423 0.709081,0.740831 0.709081,2.1060767 0,1.3652456 -0.709081,2.1166599 z"
         style="font-weight:bold;font-family:'Rounded Mplus 1c Bold';-inkscape-font-specification:'Rounded Mplus 1c Bold, Bold'"
         id="path1054" />
      <path
         d="m 31.33992,6.3316417 q -0.243415,0 -0.423332,-0.1799161 -0.179916,-0.1799161 -0.179916,-0.423332 V 1.4315739 q 0,-0.2434158 0.179916,-0.4233319 0.179917,-0.17991614 0.423332,-0.17991614 h 0.211666 q 0.243416,0 0.423332,0.17991614 0.179916,0.1799161 0.179916,0.4233319 v 0.4444986 q 0,0.010583 0.01058,0.010583 0.02117,0 0.02117,-0.010583 0.306916,-0.423332 0.804331,-0.6879144 0.497415,-0.27516584 1.09008,-0.33866564 0.222249,-0.0211666 0.380999,0.1481662 0.158749,0.15874954 0.158749,0.38099874 0,0.2222493 -0.158749,0.3809988 -0.15875,0.1587495 -0.380999,0.1799161 -1.873244,0.1481662 -1.873244,1.904994 v 1.8838273 q 0,0.2434159 -0.179916,0.423332 -0.179916,0.1799161 -0.423332,0.1799161 z"
         style="font-weight:bold;font-family:'Rounded Mplus 1c Bold';-inkscape-font-specification:'Rounded Mplus 1c Bold, Bold'"
         id="path1056" />
      <path
         d="m 36.112973,2.0665719 q -0.211666,0 -0.359832,-0.1481662 -0.148166,-0.1587495 -0.148166,-0.3704155 0,-0.211666 0.148166,-0.3598321 0.148166,-0.1481662 0.359832,-0.1481662 h 0.507999 q 0.09525,0 0.09525,-0.0952497 V -0.367587 q 0,-0.24341589 0.169333,-0.42333198 0.179916,-0.1799161 0.423332,-0.1799161 h 0.211666 q 0.243416,0 0.423332,0.1799161 0.179916,0.17991609 0.179916,0.42333198 v 1.31232916 q 0,0.0952497 0.09525,0.0952497 h 1.206496 q 0.211666,0 0.359832,0.1481662 0.15875,0.1481661 0.15875,0.3598321 0,0.211666 -0.15875,0.3704155 -0.148166,0.1481662 -0.359832,0.1481662 H 38.21905 q -0.09525,0 -0.09525,0.084666 v 2.1378265 q 0,0.6879145 0.148166,0.8889972 0.148167,0.2010827 0.613832,0.2010827 0.253999,0 0.380999,-0.021167 0.211665,-0.021167 0.370415,0.09525 0.158749,0.1164163 0.158749,0.317499 0,0.2328326 -0.158749,0.423332 -0.148166,0.1799161 -0.370415,0.2010827 -0.465666,0.042333 -0.698498,0.042333 -1.02658,0 -1.439329,-0.4339153 Q 36.716221,5.5590608 36.716221,4.4266477 V 2.1512383 q 0,-0.084666 -0.09525,-0.084666 z"
         style="font-weight:bold;font-family:'Rounded Mplus 1c Bold';-inkscape-font-specification:'Rounded Mplus 1c Bold, Bold'"
         id="path1058" />
      <path
         d="M 45.489749,5.7601435 44.08217,1.399824 q -0.07408,-0.2116659 0.05292,-0.391582 0.137583,-0.17991614 0.359832,-0.17991614 h 0.317499 q 0.264582,0 0.476248,0.1693328 0.211666,0.15874954 0.275166,0.41274864 l 1.05833,4.095737 q 0,0.010583 0.01058,0.010583 0.01058,0 0.01058,-0.010583 l 1.05833,-4.095737 q 0.0635,-0.2539991 0.275165,-0.41274864 0.211666,-0.1693328 0.476249,-0.1693328 h 0.275166 q 0.222249,0 0.349249,0.17991614 0.137583,0.1799161 0.0635,0.391582 l -1.407578,4.3603195 q -0.07408,0.2539992 -0.296333,0.4127487 -0.211666,0.1587495 -0.486832,0.1587495 h -0.677331 q -0.264582,0 -0.486832,-0.1587495 -0.211666,-0.1587495 -0.296332,-0.4127487 z"
         style="font-weight:bold;font-family:'Rounded Mplus 1c Bold';-inkscape-font-specification:'Rounded Mplus 1c Bold, Bold'"
         id="path1060" />
      <path
         d="m 50.961303,1.4527405 q -0.148166,0.1164163 -0.317499,0.03175 -0.15875,-0.084666 -0.15875,-0.2645825 V 0.79657596 q 0,-0.59266478 0.476249,-0.96308026 l 1.132413,-0.8678306 q 0.476248,-0.3598322 1.079496,-0.3598322 h 0.317499 q 0.243416,0 0.412749,0.1799161 0.179916,0.1799161 0.179916,0.42333202 V 5.7283936 q 0,0.2434159 -0.179916,0.423332 -0.169333,0.1799161 -0.412749,0.1799161 h -0.317499 q -0.243415,0 -0.423332,-0.1799161 -0.179916,-0.1799161 -0.179916,-0.423332 V 0.23566108 l -0.01058,-0.0105833 -0.01058,0.0105833 z"
         style="font-weight:bold;font-family:'Rounded Mplus 1c Bold';-inkscape-font-specification:'Rounded Mplus 1c Bold, Bold'"
         id="path1062" />
      <path
         d="m 57.713444,6.3316417 q -0.243416,0 -0.423332,-0.1799161 -0.179916,-0.1799161 -0.179916,-0.423332 V 5.1357288 q 0,-0.2434159 0.179916,-0.423332 0.179916,-0.1799161 0.423332,-0.1799161 h 0.486832 q 0.243416,0 0.423332,0.1799161 0.179916,0.1799161 0.179916,0.423332 v 0.5926648 q 0,0.2434159 -0.179916,0.423332 -0.179916,0.1799161 -0.423332,0.1799161 z"
         style="font-weight:bold;font-family:'Rounded Mplus 1c Bold';-inkscape-font-specification:'Rounded Mplus 1c Bold, Bold'"
         id="path1064" />
      <path
         d="m 65.672079,0.75424277 q 0,0.99483013 -0.634998,1.91557723 -0.624415,0.9101638 -2.434159,2.4235756 -0.02117,0.021167 -0.02117,0.03175 0,0.010583 0.01058,0.010583 h 2.497659 q 0.243416,0 0.423332,0.1799161 0.179916,0.1693328 0.179916,0.4127487 0,0.2434159 -0.179916,0.423332 -0.179916,0.1799161 -0.423332,0.1799161 h -3.884071 q -0.243416,0 -0.423332,-0.1799161 -0.169333,-0.1799161 -0.169333,-0.423332 0,-0.6032481 0.455082,-0.9630803 1.830911,-1.4604953 2.455326,-2.2754094 0.624414,-0.8149141 0.624414,-1.58749494 0,-1.17474626 -1.259412,-1.17474626 -0.645582,0 -1.566329,0.35983219 -0.201082,0.0846664 -0.380998,-0.0317499 -0.169333,-0.1164163 -0.169333,-0.31749899 v -0.17991609 q 0,-0.27516579 0.148166,-0.49741509 0.158749,-0.23283262 0.412749,-0.30691572 0.89958,-0.2539992 1.767411,-0.2539992 1.238246,0 1.904994,0.59266482 0.666748,0.59266478 0.666748,1.66157805 z"
         style="font-weight:bold;font-family:'Rounded Mplus 1c Bold';-inkscape-font-specification:'Rounded Mplus 1c Bold, Bold'"
         id="path1066" />
      <path
         d="m 68.063896,6.3316417 q -0.243415,0 -0.423332,-0.1799161 -0.179916,-0.1799161 -0.179916,-0.423332 V 5.1357288 q 0,-0.2434159 0.179916,-0.423332 0.179917,-0.1799161 0.423332,-0.1799161 h 0.486832 q 0.243416,0 0.423332,0.1799161 0.179916,0.1799161 0.179916,0.423332 v 0.5926648 q 0,0.2434159 -0.179916,0.423332 -0.179916,0.1799161 -0.423332,0.1799161 z"
         style="font-weight:bold;font-family:'Rounded Mplus 1c Bold';-inkscape-font-specification:'Rounded Mplus 1c Bold, Bold'"
         id="path1068" />
      <path
         d="m 71.545795,-0.1982542 q -0.243416,0 -0.423332,-0.1693328 -0.179916,-0.17991609 -0.179916,-0.42333198 0,-0.24341592 0.179916,-0.42333202 0.179916,-0.1799161 0.423332,-0.1799161 h 3.757072 q 0.243415,0 0.412748,0.1799161 0.179916,0.1799161 0.179916,0.42333202 0,0.60324808 -0.444498,0.99483016 L 73.736538,1.7596562 q -0.01058,0.010583 -0.01058,0.021167 0,0.010583 0.01058,0.010583 h 0.169333 q 0.973664,0 1.534578,0.5609149 0.560915,0.5503316 0.560915,1.5451618 0,1.2170794 -0.740831,1.8838273 -0.740831,0.6561646 -2.11666,0.6561646 -0.814914,0 -1.576911,-0.1904994 -0.253999,-0.0635 -0.412749,-0.2857491 Q 70.995464,5.7389769 70.995464,5.4638111 V 5.3473948 q 0,-0.211666 0.169332,-0.3280823 0.179916,-0.1269996 0.391582,-0.0635 0.857248,0.2857491 1.523996,0.2857491 0.698497,0 1.079496,-0.3386656 0.380999,-0.3386656 0.380999,-0.9842468 0,-0.5926648 -0.433915,-0.846664 -0.423332,-0.2645825 -1.502829,-0.2645825 h -0.116416 q -0.211666,0 -0.370416,-0.1587495 -0.148166,-0.1587495 -0.148166,-0.3704155 0,-0.529165 0.380999,-0.8784139 l 1.725078,-1.5663283 q 0.01058,-0.0105833 0.01058,-0.0211666 0,-0.0105833 -0.01058,-0.0105833 z"
         style="font-weight:bold;font-family:'Rounded Mplus 1c Bold';-inkscape-font-specification:'Rounded Mplus 1c Bold, Bold'"
         id="path1070" />
    </g>
  </g>
</svg>
