<?xml version="1.0" encoding="UTF-8" standalone="no"?>
<svg
   width="73.729408mm"
   height="7.9374747mm"
   viewBox="0 0 73.729409 7.9374747"
   version="1.1"
   id="svg8"
   inkscape:version="1.1 (1:1.1+202105261517+ce6663b3b7)"
   sodipodi:docname="text-version.svg"
   xmlns:inkscape="http://www.inkscape.org/namespaces/inkscape"
   xmlns:sodipodi="http://sodipodi.sourceforge.net/DTD/sodipodi-0.dtd"
   xmlns="http://www.w3.org/2000/svg"
   xmlns:svg="http://www.w3.org/2000/svg"
   xmlns:rdf="http://www.w3.org/1999/02/22-rdf-syntax-ns#"
   xmlns:cc="http://creativecommons.org/ns#"
   xmlns:dc="http://purl.org/dc/elements/1.1/">
  <defs
     id="defs2" />
  <sodipodi:namedview
     id="base"
     pagecolor="#ffffff"
     bordercolor="#666666"
     borderopacity="1.0"
     inkscape:pageopacity="0.0"
     inkscape:pageshadow="2"
     inkscape:zoom="1.9931393"
     inkscape:cx="159.04558"
     inkscape:cy="7.5258162"
     inkscape:document-units="mm"
     inkscape:current-layer="text5367"
     inkscape:document-rotation="0"
     showgrid="false"
     inkscape:snap-bbox="true"
     inkscape:bbox-paths="true"
     inkscape:bbox-nodes="true"
     inkscape:snap-bbox-edge-midpoints="true"
     inkscape:snap-bbox-midpoints="true"
     inkscape:object-paths="true"
     inkscape:snap-intersection-paths="true"
     inkscape:snap-smooth-nodes="true"
     inkscape:snap-midpoints="true"
     inkscape:snap-object-midpoints="true"
     inkscape:snap-center="true"
     inkscape:snap-page="true"
     inkscape:snap-text-baseline="true"
     inkscape:pagecheckerboard="true"
     fit-margin-top="0"
     fit-margin-left="0"
     fit-margin-right="0"
     fit-margin-bottom="0"
     lock-margins="true" />
  <metadata
     id="metadata5">
    <rdf:RDF>
      <cc:Work
         rdf:about="">
        <dc:format>image/svg+xml</dc:format>
        <dc:type
           rdf:resource="http://purl.org/dc/dcmitype/StillImage" />
      </cc:Work>
    </rdf:RDF>
  </metadata>
  <g
     inkscape:label="レイヤー 1"
     inkscape:groupmode="layer"
     id="layer1"
     transform="translate(1.5,1.5000001)">
    <g
       aria-label="TELPort"
       id="text5367"
       style="font-size:10.5833px;line-height:1.25;font-family:'Mplus 1p';-inkscape-font-specification:'Mplus 1p';fill:#b8c5c5;stroke-width:0.264583">
      <path
         d="m -0.8967519,-0.1665043 q -0.2434159,0 -0.423332,-0.1693328 Q -1.5,-0.51575319 -1.5,-0.75916908 v -0.0317499 q 0,-0.24341592 0.1799161,-0.42333202 0.1799161,-0.1799161 0.423332,-0.1799161 h 4.5084856 q 0.2434159,0 0.423332,0.1799161 0.1799161,0.1799161 0.1799161,0.42333202 v 0.0317499 q 0,0.24341589 -0.1799161,0.42333198 -0.1799161,0.1693328 -0.423332,0.1693328 H 2.1935716 q -0.084666,0 -0.084666,0.09524969 V 5.7283936 q 0,0.2434159 -0.1799161,0.423332 Q 1.749073,6.3316417 1.5056571,6.3316417 H 1.2093247 q -0.24341586,0 -0.42333195,-0.1799161 -0.1799161,-0.1799161 -0.1799161,-0.423332 v -5.79964821 q 0,-0.09524969 -0.0846664,-0.09524969 z"
         style="font-family:'Rounded Mplus 1c Bold';-inkscape-font-specification:'Rounded Mplus 1c Bold, '"
         id="path26363" />
      <path
         d="m 5.674101,6.3316417 q -0.1866195,0 -0.3245556,-0.1379362 Q 5.2197231,6.0557694 5.2197231,5.86915 V 0.87099391 q 0,-0.18661946 0.1298223,-0.32455559 Q 5.4874815,0.4085022 5.674101,0.4085022 h 2.8723169 q 0.1866195,0 0.3164417,0.13793612 0.1379361,0.13793613 0.1379361,0.32455559 V 1.0576134 q 0,0.1866194 -0.1379361,0.3245556 Q 8.7330374,1.5201051 8.5464179,1.5201051 H 6.6639955 q -0.064911,0 -0.064911,0.064911 v 1.0710334 q 0,0.073025 0.064911,0.073025 h 1.7201446 q 0.1866195,0 0.3164417,0.1379362 0.1379361,0.1379361 0.1379361,0.3245556 v 0.1217083 q 0,0.1866195 -0.1379361,0.3245556 Q 8.5707596,3.7757664 8.3841401,3.7757664 H 6.6639955 q -0.064911,0 -0.064911,0.064911 v 1.3144502 q 0,0.064911 0.064911,0.064911 h 1.8824224 q 0.1866195,0 0.3164417,0.1379361 0.1379361,0.1379361 0.1379361,0.3245556 V 5.86915 q 0,0.1866194 -0.1379361,0.3245555 -0.1298222,0.1379362 -0.3164417,0.1379362 z"
         style="font-weight:800;font-size:8.11389px;font-family:'Rounded Mplus 1c';-inkscape-font-specification:'Rounded Mplus 1c Ultra-Bold'"
         id="path26365" />
      <path
         d="m 10.76047,6.3316417 q -0.18662,0 -0.324556,-0.1379362 Q 10.297977,6.0557694 10.297977,5.86915 V 0.87099391 q 0,-0.18661946 0.137937,-0.32455559 Q 10.57385,0.4085022 10.76047,0.4085022 h 0.503062 q 0.186619,0 0.316441,0.13793612 0.137936,0.13793613 0.137936,0.32455559 V 5.1226721 q 0,0.064911 0.07302,0.064911 h 1.971676 q 0.186619,0 0.324555,0.1379362 0.137936,0.1379361 0.137936,0.3245555 V 5.86915 q 0,0.1866194 -0.137936,0.3245555 -0.137936,0.1379362 -0.324555,0.1379362 z"
         style="font-weight:800;font-size:8.11389px;font-family:'Rounded Mplus 1c';-inkscape-font-specification:'Rounded Mplus 1c Ultra-Bold'"
         id="path26367" />
      <path
         d="m 16.671841,-0.1876709 v 2.5505752 q 0,0.074083 0.08467,0.09525 0.402165,0.052917 0.783164,0.052917 0.857247,0 1.301746,-0.3704155 0.455081,-0.3809988 0.455081,-1.0794965 0,-1.4075789 -1.756827,-1.4075789 -0.380999,0 -0.783164,0.0529165 -0.08467,0.0211666 -0.08467,0.1058322 z m -0.86783,6.5193126 q -0.243416,0 -0.423332,-0.1799161 -0.169333,-0.1799161 -0.169333,-0.423332 v -6.46639608 q 0,-0.25399919 0.169333,-0.45508192 0.169332,-0.2010827 0.423332,-0.2222493 0.89958,-0.084666 1.735661,-0.084666 1.587495,0 2.381242,0.63499802 0.793748,0.62441468 0.793748,1.82032754 0,1.32291244 -0.772581,2.00024364 -0.761998,0.6773312 -2.264826,0.6773312 -0.349249,0 -0.920747,-0.042333 -0.08467,0 -0.08467,0.084666 v 2.0531601 q 0,0.2434159 -0.179916,0.423332 -0.179916,0.1799161 -0.423332,0.1799161 z"
         style="font-family:'Rounded Mplus 1c Bold';-inkscape-font-specification:'Rounded Mplus 1c Bold, '"
         id="path26369" />
      <path
         d="m 24.778625,2.1935715 q -0.306915,-0.4444986 -0.93133,-0.4444986 -0.624415,0 -0.941914,0.4444986 -0.306916,0.4339153 -0.306916,1.3864123 0,0.9524969 0.306916,1.3969955 0.317499,0.4339153 0.941914,0.4339153 0.624415,0 0.93133,-0.4339153 0.317499,-0.4444986 0.317499,-1.3969955 0,-0.952497 -0.317499,-1.3864123 z m 1.037164,3.5030722 q -0.698498,0.740831 -1.968494,0.740831 -1.269996,0 -1.979077,-0.740831 -0.698498,-0.7514143 -0.698498,-2.1166599 0,-1.3652457 0.698498,-2.1060767 0.709081,-0.75141423 1.979077,-0.75141423 1.269996,0 1.968494,0.75141423 0.709081,0.740831 0.709081,2.1060767 0,1.3652456 -0.709081,2.1166599 z"
         style="font-family:'Rounded Mplus 1c Bold';-inkscape-font-specification:'Rounded Mplus 1c Bold, '"
         id="path26371" />
      <path
         d="m 28.218192,6.3316417 q -0.243416,0 -0.423332,-0.1799161 -0.179916,-0.1799161 -0.179916,-0.423332 V 1.4315739 q 0,-0.2434158 0.179916,-0.4233319 0.179916,-0.17991614 0.423332,-0.17991614 h 0.211666 q 0.243416,0 0.423332,0.17991614 0.179916,0.1799161 0.179916,0.4233319 v 0.4444986 q 0,0.010583 0.01058,0.010583 0.02117,0 0.02117,-0.010583 0.306915,-0.423332 0.80433,-0.6879144 0.497416,-0.27516584 1.09008,-0.33866564 0.22225,-0.0211666 0.380999,0.1481662 0.15875,0.15874954 0.15875,0.38099874 0,0.2222493 -0.15875,0.3809988 -0.158749,0.1587495 -0.380999,0.1799161 -1.873244,0.1481662 -1.873244,1.904994 v 1.8838273 q 0,0.2434159 -0.179916,0.423332 -0.179916,0.1799161 -0.423332,0.1799161 z"
         style="font-family:'Rounded Mplus 1c Bold';-inkscape-font-specification:'Rounded Mplus 1c Bold, '"
         id="path26373" />
      <path
         d="m 32.991246,2.0665719 q -0.211666,0 -0.359832,-0.1481662 -0.148166,-0.1587495 -0.148166,-0.3704155 0,-0.211666 0.148166,-0.3598321 0.148166,-0.1481662 0.359832,-0.1481662 h 0.507999 q 0.09525,0 0.09525,-0.0952497 V -0.367587 q 0,-0.24341589 0.169332,-0.42333198 0.179916,-0.1799161 0.423332,-0.1799161 h 0.211666 q 0.243416,0 0.423332,0.1799161 0.179916,0.17991609 0.179916,0.42333198 v 1.31232916 q 0,0.0952497 0.09525,0.0952497 h 1.206496 q 0.211666,0 0.359832,0.1481662 0.15875,0.1481661 0.15875,0.3598321 0,0.211666 -0.15875,0.3704155 -0.148166,0.1481662 -0.359832,0.1481662 h -1.206496 q -0.09525,0 -0.09525,0.084666 v 2.1378265 q 0,0.6879145 0.148167,0.8889972 0.148166,0.2010827 0.613831,0.2010827 0.253999,0 0.380999,-0.021167 0.211666,-0.021167 0.370415,0.09525 0.15875,0.1164163 0.15875,0.317499 0,0.2328326 -0.15875,0.423332 -0.148166,0.1799161 -0.370415,0.2010827 -0.465665,0.042333 -0.698498,0.042333 -1.02658,0 -1.439329,-0.4339153 -0.412748,-0.4444979 -0.412748,-1.576911 V 2.1512383 q 0,-0.084666 -0.09525,-0.084666 z"
         style="font-family:'Rounded Mplus 1c Bold';-inkscape-font-specification:'Rounded Mplus 1c Bold, '"
         id="path26375" />
    </g>
    <g
       aria-label="v0.0.1"
       id="text27047"
       style="font-size:10.5833px;line-height:1.25;font-family:'Mplus 1p';-inkscape-font-specification:'Mplus 1p';fill:#b7c5c5;fill-opacity:0.866667;stroke-width:0.264583">
      <path
         d="M 42.934874,5.7601435 41.527295,1.399824 q -0.07408,-0.2116659 0.05292,-0.391582 0.137582,-0.17991614 0.359832,-0.17991614 h 0.317499 q 0.264582,0 0.476248,0.1693328 0.211666,0.15874954 0.275166,0.41274864 l 1.05833,4.095737 q 0,0.010583 0.01058,0.010583 0.01058,0 0.01058,-0.010583 l 1.05833,-4.095737 q 0.0635,-0.2539991 0.275165,-0.41274864 0.211666,-0.1693328 0.476249,-0.1693328 h 0.275166 q 0.222249,0 0.349249,0.17991614 0.137582,0.1799161 0.0635,0.391582 l -1.407579,4.3603195 q -0.07408,0.2539992 -0.296332,0.4127487 -0.211666,0.1587495 -0.486832,0.1587495 h -0.677331 q -0.264582,0 -0.486832,-0.1587495 Q 43.01954,6.0141427 42.934874,5.7601435 Z"
         style="font-family:'Rounded Mplus 1c Bold';-inkscape-font-specification:'Rounded Mplus 1c Bold, '"
         id="path34753" />
      <path
         d="m 51.32742,0.28857758 q -0.359832,-0.63499798 -1.100663,-0.63499798 -0.740831,0 -1.100663,0.63499798 -0.359832,0.63499798 -0.359832,2.18015972 0,1.5451618 0.359832,2.1801597 0.359832,0.634998 1.100663,0.634998 0.740831,0 1.100663,-0.634998 0.359832,-0.6349979 0.359832,-2.1801597 0,-1.54516174 -0.359832,-2.18015972 z M 52.44925,5.495561 q -0.730248,0.9419137 -2.222493,0.9419137 -1.492245,0 -2.233076,-0.9419137 -0.730248,-0.9419137 -0.730248,-3.0268237 0,-2.08491002 0.730248,-3.02682369 0.740831,-0.94191371 2.233076,-0.94191371 1.492245,0 2.222493,0.94191371 0.740831,0.94191367 0.740831,3.02682369 0,2.08491 -0.740831,3.0268237 z"
         style="font-family:'Rounded Mplus 1c Bold';-inkscape-font-specification:'Rounded Mplus 1c Bold, '"
         id="path34755" />
      <path
         d="m 55.158569,6.3316417 q -0.243416,0 -0.423332,-0.1799161 -0.179916,-0.1799161 -0.179916,-0.423332 V 5.1357288 q 0,-0.2434159 0.179916,-0.423332 0.179916,-0.1799161 0.423332,-0.1799161 h 0.486832 q 0.243416,0 0.423332,0.1799161 0.179916,0.1799161 0.179916,0.423332 v 0.5926648 q 0,0.2434159 -0.179916,0.423332 -0.179916,0.1799161 -0.423332,0.1799161 z"
         style="font-family:'Rounded Mplus 1c Bold';-inkscape-font-specification:'Rounded Mplus 1c Bold, '"
         id="path34757" />
      <path
         d="m 61.677875,0.28857758 q -0.359833,-0.63499798 -1.100664,-0.63499798 -0.740831,0 -1.100663,0.63499798 -0.359832,0.63499798 -0.359832,2.18015972 0,1.5451618 0.359832,2.1801597 0.359832,0.634998 1.100663,0.634998 0.740831,0 1.100664,-0.634998 0.359832,-0.6349979 0.359832,-2.1801597 0,-1.54516174 -0.359832,-2.18015972 z M 62.799704,5.495561 q -0.730247,0.9419137 -2.222493,0.9419137 -1.492245,0 -2.233076,-0.9419137 -0.730247,-0.9419137 -0.730247,-3.0268237 0,-2.08491002 0.730247,-3.02682369 0.740831,-0.94191371 2.233076,-0.94191371 1.492246,0 2.222493,0.94191371 0.740831,0.94191367 0.740831,3.02682369 0,2.08491 -0.740831,3.0268237 z"
         style="font-family:'Rounded Mplus 1c Bold';-inkscape-font-specification:'Rounded Mplus 1c Bold, '"
         id="path34759" />
      <path
         d="m 65.509021,6.3316417 q -0.243416,0 -0.423332,-0.1799161 -0.179916,-0.1799161 -0.179916,-0.423332 V 5.1357288 q 0,-0.2434159 0.179916,-0.423332 0.179916,-0.1799161 0.423332,-0.1799161 h 0.486832 q 0.243416,0 0.423332,0.1799161 0.179916,0.1799161 0.179916,0.423332 v 0.5926648 q 0,0.2434159 -0.179916,0.423332 -0.179916,0.1799161 -0.423332,0.1799161 z"
         style="font-family:'Rounded Mplus 1c Bold';-inkscape-font-specification:'Rounded Mplus 1c Bold, '"
         id="path34761" />
      <path
         d="M 69.107336,1.4527405 Q 68.95917,1.5691568 68.789837,1.4844904 68.631088,1.399824 68.631088,1.2199079 V 0.79657596 q 0,-0.59266478 0.476248,-0.96308026 l 1.132413,-0.8678306 q 0.476249,-0.3598322 1.079497,-0.3598322 h 0.317499 q 0.243416,0 0.412749,0.1799161 0.179916,0.1799161 0.179916,0.42333202 V 5.7283936 q 0,0.2434159 -0.179916,0.423332 -0.169333,0.1799161 -0.412749,0.1799161 h -0.317499 q -0.243416,0 -0.423332,-0.1799161 -0.179916,-0.1799161 -0.179916,-0.423332 V 0.23566108 l -0.01058,-0.0105833 -0.01058,0.0105833 z"
         style="font-family:'Rounded Mplus 1c Bold';-inkscape-font-specification:'Rounded Mplus 1c Bold, '"
         id="path34763" />
    </g>
  </g>
</svg>
